<?xml version="1.0" encoding="UTF-8"?>
<svg width="125.37mm" height="228.75mm" version="1.1" viewBox="0 0 125.37 228.75" xmlns="http://www.w3.org/2000/svg">
<g transform="translate(-12.989 -46.624)">
<rect x="-33.024" y="-23.736" width="266.77" height="339.53" display="none" stroke-width=".26458"/>
</g>
<g transform="translate(-12.989 -46.624)" fill="#fff" stroke-width=".26458">
<path d="m52.771 96.711c9.1888-0.13427 9.6986 98.41-4.3605 138.46-5.6556 16.111-23.542 25.922-29.874 27.691l1.0319 3.3501c13.066-2.6011 38.068-15.288 18.582 5.9242 0.0041 0.0234 5.7225 0 5.7225 0 6.2001-8.1591 12.492-15.498 17.931-16.023 8.6086 0.23242 9.5845 11.847 16.15 17.549l4.4508-1e-5c-10.751-11.83-10.049-20.491-0.763-16.277 12.526 5.648 31.127 18.672 35.722 16.167l3.0637-1.6703c-14.403-3.7601-21.83-8.1772-24.035-15.896 14.268-1.4002 29.248 6.5994 42.89 6.6199 0 0-0.0917-3.3113-0.28884-3.4407-14.344-0.61273-25.656-7.236-34.717-13.48-28.442-55.517-24.096-78.106-1.526-123.61 6.8742-20.928 26.269-53.504 27.468-74.774h-9.6647s-2.414 16.114-4.8323 21.364c0 0-6.7264-6.4465-11.064-21.364l-5.8233-0.18156s10.952 19.572 12.169 33.523c1.3782 15.802-15.301 25.425-18.808 30.115-5.6004 5.1632-7.7062-12.248-10.597-19.901-6.3254-16.747 3.2932-37.18 1.8222-43.046-6.3715 1.0436-20.609-2.9189-24.416 0.50867-0.69136 6.6314-2.8383 21.916-4.0693 27.468-14.303 3.3087-29.269 3.0234-41.202-0.50867-11.834-6.1647-5.7156-21.516-10.682-28.485-1.7871 1.2881-3.7408 3.3375-5.0867 4.578-0.11989 0.11989 0.075828 0.35701 0 0.50867-0.55336 6.3207-0.30393 17.839 1.526 22.89 4.9263 12.197 42.149 21.772 53.28 21.937z" display="none" fill-opacity=".39682"/>
<path d="m63.168 80.287c9.0813 26.14 1.9331 59.792 0.29958 86.38-3.1714 27.8 0.33668 53.684-7.224 77.4-1.0685 3.2055-6.1328 6.2766-8.7719 8.256-6.5539 4.9154-28.419 16.057-28.419 16.057l4.2196 1.9807s24.977-9.8451 27.303-10.545c12.206-4.5267 19.216-3.2803 15.426 13.812l2.6778 0.73368c0.25884-0.45463 3.6359-6.0232 3.9517-6.4063 20.716-25.134 24.309 6.1482 49.145 6.5555l0.57462-2.9468c-17.35-4.2418-22.752-15.345-22.752-15.345 12.56-0.63213 21.586 3.0368 33.888 6.1113l6.1553-1.9148c-14.459-3.8325-33.002-7.5702-39.539-17.896-10.702-29.524-7.7631-67.838-7.74-98.039 5.2913-36.29 67.065-63.696 55.178-95.095l-4.377 0.0279c3.497 18.3-8.0307 29.305-27.468 49.321 1.0948-9.7388 2.6923-33.485 2.6968-49.224l-6.6272 0.02493c0.57402 18.16-0.61876 65.514-17.854 61.404-5.5905-23.541-5.884-40.117-3.1816-61.162l-21.701-0.0933s-1.2622 18.641-1.169 18.641c-16.087-2.5121-38.175-7.5164-50.358-18.83l-11.203 0.14854c19.026 16.902 47.253 22.339 56.869 30.644z" display="none" fill-opacity=".32653"/>
<path d="m12.989 48.323c1.0172 13.41 2.8748 24.902 6.8489 37.641 11.567 21.627 33.588 36.747 37.46 59.197 5.3072 30.773 2.738 56.128-12.637 100.87-3.1022 7.7742-25.14 19.747-25.14 19.747l3.7437 3.2379c1.4219 1.2298 19.813-12.3 22.611-11.082 3.0354 1.0791 1.2337 5.2191-3.358 14.379l3.7097 3.0573c4.9661-9.069 12.306-17.907 18.671-18.323 15.626-1.0226 14.53 5.6391 19.032 12.543 2.0436 0.60172 4.8143 0.0873 4.8143 0.0873-0.14161-4.7363-2.2399-11.621 0.56726-12.525 7.1585-2.3042 27.592 11.524 38.872 13.342l5.0356-4.0746c-7.4324 0.32428-22.909-4.1746-31.976-15.995-24.103-31.424-20.302-99.524-6.6308-135.98 21.013-24.902 41.363-42.868 43.745-67.175l-5.8471 0.01976c-1.4235 0.0048-1.8408 13.497-7.7326 18.806-0.64277-1.9283-3.0896-18.17-3.2063-18.286-0.87306 0.02566-5.1065-0.36842-5.5953 0 8.6824 29.132-8.222 37.757-24.925 53.41-1.6967-21.916-3.3024-32.502 0.0059-54.601 0 0-8.7555 0.81752-25.588 0.04989-2.3926 25.288-2.068 49.19-5.955 71.337-14.139-8.1013-27.046-24.25-29.719-35.185 12.858-7.9109 24.408-19.792 24.632-35.376l-6.903 0.15956c0.19817 16.474-9.1714 23.125-22.42 24.868-3.6389-9.0457-3.7278-16.403-2.8332-23.928 0 0-4.9233-0.27394-9.2822-0.2264z"/>
</g>
</svg>
