<?xml version="1.0" encoding="UTF-8"?>
<svg width="143.66mm" height="234mm" version="1.1" viewBox="0 0 143.66 234" xmlns="http://www.w3.org/2000/svg">
<g transform="translate(-5.3996 -40.512)">
<rect x="-33.024" y="-23.736" width="266.77" height="339.53" display="none" stroke-width=".26458"/>
</g>
<g transform="translate(-5.3996 -40.512)" fill="#fff">
<path d="m63.168 80.287c9.0813 26.14 1.9331 59.792 0.29958 86.38-3.1714 27.8 0.33668 53.684-7.224 77.4-1.0685 3.2055-6.1328 6.2766-8.7719 8.256-6.5539 4.9154-28.419 16.057-28.419 16.057l4.2196 1.9807s24.977-9.8451 27.303-10.545c12.206-4.5267 19.216-3.2803 15.426 13.812l2.6778 0.73368c0.25884-0.45463 3.6359-6.0232 3.9517-6.4063 20.716-25.134 24.309 6.1482 49.145 6.5555l0.57462-2.9468c-17.35-4.2418-22.752-15.345-22.752-15.345 12.56-0.63213 21.586 3.0368 33.888 6.1113l6.1553-1.9148c-14.459-3.8325-33.002-7.5702-39.539-17.896-10.702-29.524-7.7631-67.838-7.74-98.039 5.2913-36.29 67.065-63.696 55.178-95.095l-3.8375 1.017c3.497 18.3-8.5702 28.316-28.008 48.332 1.0948-9.7388 2.6024-29.888 2.6069-45.627l-6.3574 1.0141c0.57402 18.16-0.7986 60.928-18.034 56.818-5.5905-23.541-4.715-48.749-2.0127-69.794l-24.039-0.63283s-0.09324 27.813 0 27.813c-16.087-2.5121-38.265-5.6281-50.448-16.942l-12.012-0.0313c19.026 16.902 48.153 20.63 57.768 28.935z" fill="#fff" stroke-width=".26458"/>
</g>
</svg>
