<?xml version="1.0" encoding="UTF-8"?>
<svg width="105.49mm" height="90.663mm" version="1.1" viewBox="0 0 105.49 90.663" xmlns="http://www.w3.org/2000/svg">
<g transform="translate(-40.174 -97.877)">
<path d="m83.919 98.878c-26.43 0.65433-40.474 22.058-42.689 44.149-1.2939 24.554 20.478 44.037 42.324 44.514 21.689-0.48527 41.059-4.7918 52.715-14.995 15.955-16.369 5.409-43.602-0.90407-42.836-8.7431 1.3486-2.5125 8.6976-8.0818 14.171-6.3729 6.2627-10.845 6.607-10.44 5.1006 6.6755-20.162 0.62881-47.645-32.924-50.102z" fill="#ff8e04" stroke="#c46c00" stroke-width="2"/>
<path d="m55.642 148.86c6.4604-1.6386 15.212-4.686 22.986 3.2838 0.0272 0.0544-0.043 0.13943 0 0.18243s0.12162 0 0.18243 0" fill="#ff8e04" stroke="#c46c00" stroke-linecap="round" stroke-width="2"/>
<path d="m53.088 133.18c7.7814-10.124 21.795-8.7578 25.905-4.5608 0.44309 0.4431 0.26789-0.0542 0.5473 0.36487 0.13485 0.20227 0.65775 0.69623 0.72973 0.91216 0 1.0338-0.12162 0.0608 0.18243 0.36486 0.28259 0.2826-0.55445 0.18244 0 0.18244" fill="none" stroke="#c46c00" stroke-linecap="round" stroke-width="2"/>
<path d="m122.22 155.07c2.8059 2.4725 4.7434-2.5984 6.654-0.42772 1.8798 2.1356-0.54771 4.9118 1.3369 6.4444s3.9572-2.9984 6.2742-1.0421c2.1114 1.7826-1.1298 3.9872 2.5368 6.0379 2.2812 1.2759 6.1422-14.584 5.4088-17.816-0.0842-0.25257 0.0842-0.58933 0-0.8419-1.57-12.358-5.2413-17.98-9.4325-17.593-7.1812 0.66318-2.5506 6.4027-7.052 13.439-2.4661 2.7308-4.0759 2.9563-5.0853 4.7881-1.2957 2.3443-3.0661 4.8738-0.64086 7.0109z" fill="#fff"/>
<path d="m83.919 98.878c-26.43 0.65433-40.474 22.058-42.689 44.149-1.2939 24.554 20.478 44.037 42.324 44.514 21.689-0.48527 41.059-4.7918 52.715-14.995 15.955-16.369 5.409-43.602-0.90407-42.836-8.7431 1.3486-2.5125 8.6976-8.0818 14.171-6.3729 6.2627-10.845 6.607-10.44 5.1006 6.6755-20.162 0.62881-47.645-32.924-50.102z" fill="none" stroke="#c46c00" stroke-width="2"/>
<path class="UnoptimicedTransforms" d="m85.378 108.91c-7.0226 0.96939-9.6036 20.809-4.4018 25.019-1.4354 0.68803-2.8884 1.4671-4.3548 2.3456-5.525 5.4414-0.2268 13.552 4.4695 18.517-0.23338 2.845-4.4829 8.4191-1.186 11.585 0.4537 0.57278 3.2471 2.5567 4.3785 3.2835 4.7734-0.22977 8.1302-3.6508 11.981-8.015 7.102-0.24528 13.247 2.3052 21.404-4.3904 2.1246-2.0921 1.8963-5.9202 0.37413-10.013 0.2948-0.11002 0.59504-0.23665 0.90279-0.38499 2.9216-2.5305 12.248-19.542 5.473-21.527-3.7361-0.49584-12.124 4.1675-15.642 8.5519-1.1242-0.94278-2.2513-1.6885-3.3306-2.1668-2.33-1.0243-4.9779-1.6066-7.8646-1.711-0.53346-9.5912-6.6975-19.985-11.656-20.91-0.18968-0.0316-0.35644-0.15856-0.54725-0.18241z" fill="#ff8e04"/>
<path d="m107.86 162.36c9.4793-2.6544 13.565-8.202 11.317-8.7632-2.9665-0.74069-17.374-0.7559-22.133 3.3309-8.5865 7.3729-15.816 10.172-13.165-7.3076 0.14663-2.491-6.3146-11.975-7.2552-13.348-2.3067 4.6042-1.5127 9.6261-1.5127 9.6261 1.5208 3.5852 2.6901 6.2452 6.0388 9.1597-1.7594 5.4686-4.7672 10.956-0.18653 12.542 7.2626 5.2353 12.563-4.5159 16.458-5.9699" fill="#fff"/>
<path class="UnoptimicedTransforms" d="m85.378 108.91c-7.0226 0.96939-9.6036 20.809-4.4018 25.019-1.4354 0.68803-2.8884 1.4671-4.3548 2.3456-5.525 5.4414-0.2268 13.552 4.4695 18.517-0.23338 2.845-4.4829 8.4191-1.186 11.585 1.7803 1.446 2.8897 2.6985 5.8057 3.1144 4.0406-0.77279 7.0983-3.9295 10.554-7.8458 7.102-0.24528 13.247 2.3052 21.404-4.3904 2.1246-2.0921 1.8963-5.9202 0.37413-10.013 0.2948-0.11002 0.59504-0.23665 0.90279-0.38499 2.9216-2.5305 12.248-19.542 5.473-21.527-3.7361-0.49584-12.124 4.1675-15.642 8.5519-1.1242-0.94278-2.2513-1.6885-3.3306-2.1668-2.33-1.0243-4.9779-1.6066-7.8646-1.711-0.53346-9.5912-6.6975-19.985-11.656-20.91-0.18968-0.0316-0.35644-0.15856-0.54725-0.18241z" fill="none" stroke="#c46c00" stroke-width="2"/>
<path d="m83.372 143.03c2.5826 5.5714 2.3217 5.6374 7.8446 4.7432" fill="none" stroke="#774200" stroke-linecap="round" stroke-width="2"/>
<path d="m96.881 149.95c2.9991 3.298 2.5372 3.1722 7.8027 2.3386" fill="none" stroke="#774200" stroke-linecap="round" stroke-width="2"/>
<path d="m88.213 165.15c-2.8063 1.8425-3.561 1.8317-4.8135 0.89628-2.5025-1.869-2.1943-1.0182-1.633-3.7026 0.62917-3.7423 8.9091 1.3456 6.4465 2.8063z" fill="#774200" stroke="#774200" stroke-linecap="round" stroke-width="2"/>
<path d="m85.62 114.87c-3.6961-0.0926-4.588 9.433-1.6955 13.296 3.565 4.761 8.2336 4.3076 8.7801-2.094 0.29161-3.4156-4.1583-11.129-7.0846-11.202z" fill="#fff"/>
<path d="m116.86 141.35c-3.2026 0.94787-5.5106-3.3133-4.474-5.6387 1.2156-2.7269 8.0093-6.9734 9.5759-5.4733 1.5318 1.4667-0.35792 9.7079-5.1019 11.112z" fill="#fff"/>
</g>
</svg>
