<?xml version="1.0" encoding="UTF-8"?>
<svg width="125.37mm" height="228.75mm" version="1.1" viewBox="0 0 125.37 228.75" xmlns="http://www.w3.org/2000/svg">
<defs>
<clipPath id="tree-1-clip">
<path d="m12.989 48.323c1.0172 13.41 2.8748 24.902 6.8489 37.641 11.567 21.627 33.588 36.747 37.46 59.197 5.3072 30.773 2.738 56.128-12.637 100.87-3.1022 7.7742-25.14 19.747-25.14 19.747l3.7437 3.2379c1.4219 1.2298 19.813-12.3 22.611-11.082 3.0354 1.0791 1.2337 5.2191-3.358 14.379l3.7097 3.0573c4.9661-9.0691 12.306-17.907 18.671-18.323 15.626-1.0226 14.53 5.6391 19.032 12.543 2.0436 0.60171 4.8143 0.0873 4.8143 0.0873-0.1416-4.7362-2.2399-11.621 0.56726-12.525 7.1585-2.3042 27.592 11.524 38.872 13.342l5.0356-4.0746c-7.4324 0.3243-22.909-4.1746-31.976-15.995-24.103-31.424-20.302-99.524-6.6308-135.98 21.013-24.902 41.363-42.868 43.745-67.175l-5.8471 0.01976c-1.4235 0.0048-1.8408 13.497-7.7326 18.806-0.64277-1.9283-3.0896-18.17-3.2063-18.286-0.87306 0.02567-5.1065-0.36842-5.5953 0 8.6824 29.132-8.222 37.757-24.925 53.41-1.6967-21.916-3.3024-32.502 0.0059-54.601 0 0-8.7555 0.81752-25.588 0.04989-2.3926 25.288-2.068 49.19-5.955 71.337-14.139-8.1013-27.046-24.25-29.719-35.185 12.858-7.9109 24.408-19.792 24.632-35.376l-6.903 0.15956c0.19817 16.474-9.1714 23.125-22.42 24.868-3.6389-9.0457-3.7278-16.403-2.8332-23.928 0 0-4.9233-0.27394-9.2822-0.2264z" fill="#fff"/>
</clipPath>
</defs>
<g transform="translate(-12.989 -46.624)" fill="#fff" fill-opacity=".10204">
<path d="m12.989 48.323c1.0172 13.41 2.8748 24.902 6.8489 37.641 11.567 21.627 33.588 36.747 37.46 59.197 5.3072 30.773 2.738 56.128-12.637 100.87-3.1022 7.7742-25.14 19.747-25.14 19.747l3.7437 3.2379c1.4219 1.2298 19.813-12.3 22.611-11.082 3.0354 1.0791 1.2337 5.2191-3.358 14.379l3.7097 3.0573c4.9661-9.069 12.306-17.907 18.671-18.323 15.626-1.0226 14.53 5.6391 19.032 12.543 2.0436 0.60172 4.8143 0.0873 4.8143 0.0873-0.14161-4.7363-2.2399-11.621 0.56726-12.525 7.1585-2.3042 27.592 11.524 38.872 13.342l5.0356-4.0746c-7.4324 0.32428-22.909-4.1746-31.976-15.995-24.103-31.424-20.302-99.524-6.6308-135.98 21.013-24.902 41.363-42.868 43.745-67.175l-5.8471 0.01976c-1.4235 0.0048-1.8408 13.497-7.7326 18.806-0.64277-1.9283-3.0896-18.17-3.2063-18.286-0.87306 0.02566-5.1065-0.36842-5.5953 0 8.6824 29.132-8.222 37.757-24.925 53.41-1.6967-21.916-3.3024-32.502 0.0059-54.601 0 0-8.7555 0.81752-25.588 0.04989-2.3926 25.288-2.068 49.19-5.955 71.337-14.139-8.1013-27.046-24.25-29.719-35.185 12.858-7.9109 24.408-19.792 24.632-35.376l-6.903 0.15956c0.19817 16.474-9.1714 23.125-22.42 24.868-3.6389-9.0457-3.7278-16.403-2.8332-23.928 0 0-4.9233-0.27394-9.2822-0.2264z" fill="#858585" fill-opacity="1" stroke-width=".26458"/>
<path d="m136.58 75.537c-0.12716-0.16956-0.28671-0.3191-0.3815-0.50867-0.0782-0.15632-0.0719-0.34286-0.12716-0.50867-0.0952-0.28551-0.2364-0.34562-0.3815-0.63584-0.16197-0.32393-0.23441-0.68638-0.38151-1.0173-0.29382-0.6611-0.67775-1.2708-1.0173-1.9075-0.40526-0.48238-0.49158-1.1103-0.763-1.6532-0.38838-0.77677-0.88282-1.5113-1.2717-2.289-0.47226-0.94452-0.25585-0.78377-0.763-1.6532-0.77683-1.3317-0.26924-0.18065-0.89017-1.526-0.72437-1.5695-1.328-3.2098-1.9075-4.8323-0.39336-1.1014-0.77473-2.4447-1.0173-3.5607-0.35282-1.623 0.0684-0.61661-0.25433-1.9075-0.17006-0.68024-0.43789-1.3269-0.50867-2.0347-0.0211-0.2109 0.046-0.42894 0-0.63583-0.0411-0.18506-0.20225-0.32639-0.25433-0.50867-0.0349-0.12227 0.0249-0.2568 0-0.3815-0.0762-0.38081-0.25433-0.48109-0.25433-0.89017" clip-path="url(#tree-1-clip)" fill="none" stroke="#646464" stroke-linecap="round" stroke-width="2"/>
<path d="m86.092 204.48c-1.8236-3.17-4.4557-5.8594-6.104-9.156-0.25439-0.50877-0.56263-1.1188-0.763-1.6532-0.06137-0.16365-0.05832-0.34802-0.12717-0.50866-0.41861-0.97677-0.11265 0.29789-0.50867-0.89017-0.06835-0.20505-0.05128-0.43346-0.12717-0.63584-0.05366-0.1431-0.19413-0.24102-0.25433-0.3815-0.1377-0.32128-0.11664-0.69605-0.25434-1.0173-0.0602-0.14048-0.18598-0.2448-0.25433-0.3815-0.43259-0.86519-0.64056-2.3911-0.89017-3.3063-0.11452-0.4199-0.28461-0.83569-0.3815-1.2717-0.40149-1.8067 0.06195 0.36838-0.12717-1.1445-0.09048-0.7238-0.30114-1.4386-0.3815-2.1618-0.04213-0.37917 0.04732-0.76595 0-1.1445-0.06836-0.5469-0.21218-1.1052-0.25433-1.6532-0.06045-0.78582 0-1.6238 0-2.4162 0-1.5371-0.01143-3.0534 0.12717-4.578 0.03838-0.42215-0.04218-0.84988 0-1.2717 0.05897-0.5897 0.26528-1.1992 0.3815-1.7803 0.38594-1.9297-0.08582 0.64528 0.12717-1.2717 0.07176-0.64587 0.36752-1.2724 0.50867-1.9075 0.17449-0.7852 0.27887-1.6502 0.50867-2.4162 0.05447-0.18158 0.18777-0.33117 0.25433-0.50867 0.19797-0.52791 0.20475-1.1229 0.3815-1.6532 0.05995-0.17984 0.18777-0.33117 0.25434-0.50867 0.12273-0.32729 0.1438-0.68572 0.25433-1.0173 0.696-2.088-0.15607 0.62814 0.50867-1.1445 0.18704-0.49878 0.31103-1.0319 0.50867-1.526 0.1056-0.26401 0.28432-0.49576 0.3815-0.763 0.07387-0.20313 0.06506-0.4288 0.12717-0.63583 0.24643-0.82144 0.59676-1.6093 0.89017-2.4162 0.50297-1.3832 0.86466-2.8738 1.526-4.1965 0.71033-1.4207 1.3721-2.8661 2.0347-4.3237 0.45754-1.0066 1.0362-1.9453 1.526-2.9248 0.34259-0.68517 0.48701-0.69331 0.89017-1.3988 0.1881-0.32919 0.32056-0.68815 0.50867-1.0173 0.55306-0.96786 1.2123-1.8509 1.7803-2.7977 0.2926-0.48766 0.48681-1.0289 0.763-1.526 0.51561-0.9281 1.0167-1.8639 1.526-2.7977 0.66084-1.2115 2.8724-4.9371 2.289-6.104" clip-path="url(#tree-1-clip)" fill="none" stroke="#646464" stroke-linecap="round" stroke-width="2"/>
<path d="m55.953 199.91c0.97333-1.9993 1.7374-4.0823 2.6705-6.104 0.72284-1.5662 1.4917-3.1136 2.1618-4.7052 1.5649-3.7166 2.8368-7.6592 3.815-11.572 0.48846-1.9539 0.63101-3.99 0.89017-5.9768 0.29002-2.2235 0.27488-0.57925 0.3815-2.9248 0.04042-0.88925-0.03706-1.7811 0-2.6705 0.02302-0.55221 0.12717-1.1005 0.12717-1.6532 0-0.38385-0.10322-0.7614-0.12717-1.1445-0.03437-0.54998 0.03926-1.1035 0-1.6532-0.06791-0.95079-0.1815-1.9915-0.3815-2.9248-0.67755-3.1619 0.2126 1.8121-0.50867-2.0347-0.13372-0.71316-0.2051-1.4562-0.3815-2.1618-0.19433-0.77732-0.55361-1.5212-0.763-2.289-0.06784-0.24876-0.05932-0.51424-0.12717-0.763-0.24005-0.88018-0.94349-2.2324-1.3988-3.052-0.3045-0.54811-0.6886-1-1.0173-1.526-0.20094-0.32151-0.30772-0.69582-0.50867-1.0173-0.80521-1.2883-1.68-2.5323-2.6705-3.6878 0.03837-0.35552-0.47726-0.3501-0.63583-0.50867-0.23942-0.23942-0.39642-0.65075-0.63583-0.89017-0.10807-0.10807-0.27343-0.14626-0.3815-0.25433-1.5027-1.5027 1.0996 0.70783-1.0173-1.1445-0.11502-0.10065-0.27343-0.14627-0.3815-0.25434-0.53374-0.53374-0.98483-1.3793-1.6532-1.7803-0.11494-0.069-0.26656-0.0582-0.3815-0.12717-0.33002-0.19801-0.73251-0.763-1.1445-0.763" clip-path="url(#tree-1-clip)" fill="none" stroke="#646464" stroke-linecap="round" stroke-width="2"/>
<path d="m72.485 159.21c-0.16956-0.0848-0.37462-0.12029-0.50867-0.25433-0.20311-0.20311-0.98199-2.6051-1.1445-3.052-0.69137-1.9013-1.3508-3.774-1.9075-5.7225-1.241-4.3434-2.9953-9.3134-2.6705-13.861 0.21802-3.0523 1.7762-6.4057 3.3063-9.0288 0.70347-1.206 0.27843-0.33152 1.0173-1.3988 2.4826-3.586-0.74903 0.99537 1.0173-1.7803 0.29144-0.45798 0.69805-0.83265 1.0173-1.2717 0.99253-1.3647 2.1163-2.6658 3.052-4.0693 0.08457-0.12686 0.60283-1.2717 0.763-1.2717 0.04239 0 0 0.0848 0 0.12717v0.3815c0 0.84352-0.05995-0.17984 0.12717 0.3815 0.1946 0.58381 0.08093 1.3006 0.25433 1.9075 0.59382 2.0784 0.95935 4.1534 1.526 6.2312 0.55288 2.0272 1.2069 4.1202 1.3988 6.2312 0.13817 1.5199 0.12717 3.0423 0.12717 4.578 0 0.87451 0.08702 1.8004 0 2.6705-0.02151 0.21507-0.08478 0.42389-0.12717 0.63583-0.04239 0.29672-0.10228 0.59147-0.12717 0.89017-0.05707 0.68482-0.07017 1.3594-0.25433 2.0347-0.06006 0.22023-0.18874 0.41719-0.25433 0.63583-0.12422 0.41406-0.14059 0.85462-0.25433 1.2717-0.33262 1.2196-0.91404 2.3972-1.3988 3.5607-0.7843 1.8823-1.6586 3.6974-2.6705 5.4682-0.16017 0.28029-0.21541 0.61335-0.3815 0.89017-0.06168 0.10281-0.19265 0.15152-0.25434 0.25433-0.16919 0.28199-0.18118 0.59755-0.25433 0.89017-0.07884 0.31536-0.31481 0.55674-0.3815 0.89017-0.06081 0.30408-0.1191 0.49254-0.25433 0.763-0.03791 0.0758 0.03791 0.17851 0 0.25433-0.16085 0.32171-0.50867 0.50867-0.763 0.763z" clip-path="url(#tree-1-clip)" fill="none" stroke="#646464" stroke-linecap="round" stroke-width="2"/>
<path d="m71.213 166.21c0 0.16956 0.02397 0.34082 0 0.50867-0.08976 0.62835-0.18297 1.2652-0.25433 1.9075-0.06514 0.58621 0.06513 1.1941 0 1.7803-0.05695 0.51253-0.18141 1.0155-0.25433 1.526-0.13853 0.96971-0.18899 1.9623-0.3815 2.9248-0.31948 1.5974-0.75435 3.2026-0.89017 4.8323-0.02463 0.2957 0.01974 0.5941 0 0.89016-0.03353 0.50303-0.19356 1.391-0.25433 1.9075-0.19075 1.6214-0.38826 3.2231-0.63583 4.8323-0.15429 1.0029-0.1686 2.0585-0.3815 3.052-0.05617 0.26214-0.19405 0.50178-0.25433 0.76301-0.24201 1.0487-0.01045 0.67768-0.25433 1.6532-0.29542 1.1817-0.61172 2.4114-1.0173 3.5607-0.45055 1.2766-0.9798 2.4589-1.526 3.6878-0.28404 0.63909-0.52817 1.3042-0.89017 1.9075-0.31169 0.51949-0.71696 1.0004-1.0173 1.526-0.06651 0.11638-0.06066 0.26512-0.12717 0.3815-0.48062 0.84108-1.1177 1.6129-1.6532 2.4162-0.10515 0.15773-0.14415 0.35441-0.25433 0.50867-0.3144 0.44016-0.70293 0.8315-1.0173 1.2717-0.11018 0.15426-0.14415 0.35441-0.25433 0.50866-0.17662 0.24727-0.44744 0.40034-0.63583 0.63584-0.19095 0.23869-0.31298 0.52818-0.50867 0.763-0.46235 0.55482-1.0619 1.1318-1.6532 1.526-0.48725 0.32484-0.80333 0.92041-1.2717 1.2717-0.43341 0.32506-0.83672 0.69112-1.2717 1.0173-0.51465 0.38599-1.2274 0.74087-1.7803 1.0173-0.14299 0.0715-0.23086 0.33129-0.3815 0.3815-0.47142 0.15714-0.08327-0.17106-0.3815 0.12717" clip-path="url(#tree-1-clip)" fill="none" stroke="#646464" stroke-linecap="round" stroke-width="2"/>
<path d="m68.289 190.88c0.2833 0.38368 0.02553 0.86518 0.12717 1.2717 0.09613 0.3845 0.30133 0.74363 0.3815 1.1445 0.057 0.28499 0.05703 0.60964 0.12717 0.89017 0.07519 0.30075 0.29378 0.58314 0.3815 0.89017 0.27665 0.22197 0.06463 0.51286 0.12717 0.763 0.1151 0.4604 0.3412 0.95226 0.50867 1.3988 0.1745 0.46532 0.28677 0.9252 0.3815 1.3988 0.14 0.70003 0.48536 1.3868 0.763 2.0347 0.1056 0.24641 0.13444 0.52321 0.25433 0.763 0.06835 0.1367 0.19413 0.24102 0.25433 0.3815 0.25322 0.59086 0.43561 1.2074 0.763 1.7803 0.63026 1.1029 1.4692 2.0956 2.289 3.052 0.23408 0.27309 0.53274 0.48669 0.763 0.763 0.33031 0.39637 0.61168 0.80645 1.0173 1.1445 0.11741 0.0978 0.27343 0.14627 0.3815 0.25434 0.10807 0.10807 0.14626 0.27343 0.25433 0.3815 0.32887 0.32887 0.77927 0.59798 1.1445 0.89017 0.46701 0.37361 0.88208 0.83445 1.3988 1.1445 0.31792 0.19075 0.3815 0.12717 0.763 0.3815 1.3714 0.91425 2.76 1.8156 4.0693 2.7977 0.23738 0.17803 0.39846 0.4578 0.63583 0.63583 0.17156 0.12867 0.4852 0.23086 0.63583 0.3815 0.06702 0.067 0.07459 0.17547 0.12717 0.25434 0.19477 0.29215 0.07264-0.0545 0.3815 0.25433 0.02997 0.03-0.02997 0.0972 0 0.12717 0.06702 0.067 0.18731 0.0601 0.25433 0.12716 0.06702 0.067 0.07459 0.17547 0.12717 0.25434 0.13043 0.19564 0.37824 0.31302 0.50867 0.50867 0.13956 0.20934 0.24194 0.42649 0.3815 0.63583 0.39663 0.59495-0.33164-1.0448 0.50867 0.63583 0.03791 0.0758-0.03791 0.17851 0 0.25434 0.05362 0.10724 0.20072 0.1471 0.25434 0.25433 0.03791 0.0758-0.02056 0.17209 0 0.25434 0.04598 0.18391 0.20835 0.32475 0.25433 0.50866 0.0593 0.23721 0.04856 0.5272 0.12717 0.763 0.14601 0.43805 0.25433 0.92812 0.25433 1.3988" clip-path="url(#tree-1-clip)" fill="none" stroke="#646464" stroke-linecap="round" stroke-width="2"/>
<path d="m67.526 203.72c0 0.16956-0.16956 0.50867 0 0.50867 0.16956 0 0.04112-0.67316 0-0.50867-0.24717 0.98867-0.11248 2.0591-0.25433 3.052-0.09919 0.69435-0.41008 1.3445-0.50867 2.0347-0.10999 0.76993-0.25377 1.5226-0.3815 2.289-0.11139 0.66833-0.03123 1.3631-0.12717 2.0347-0.01894 0.1327-0.10513 0.24928-0.12717 0.3815-0.04878 0.29269 0.04196 0.59643 0 0.89017-0.01894 0.1327-0.10513 0.24928-0.12717 0.3815-0.08548 0.51287 0 1.1341 0 1.6532 0 0.86695-0.10741 1.8112 0 2.6705 0.18088 1.447 0.30267 2.8817 0.50867 4.3237 0.07987 0.55908 0.33077 1.1195 0.50867 1.6532 0.18601 0.55802 0.45494 1.6484 0.763 2.1618 0.06168 0.10281 0.19265 0.15153 0.25433 0.25434 0.15906 0.26509 0.21634 0.61489 0.3815 0.89016 0.15726 0.26211 0.3514 0.50089 0.50867 0.763 0.18093 0.30156 0.27724 0.61246 0.50867 0.89017 0.54084 0.64901 1.1254 1.2478 1.6532 1.9075 0.50337 0.62922-0.02514-0.15229 0.63583 0.50867 0.10807 0.10807 0.14626 0.27343 0.25433 0.3815 0.21614 0.21614 0.51427 0.331 0.763 0.50867 0.82932 0.59237 1.6598 1.1483 2.5433 1.6532 0.42026 0.24015 0.83662 0.32222 1.2717 0.50867 2.5265 1.0828 5.2709 1.3158 8.0115 1.1445 1.1455-0.0716 2.2963-0.36652 3.4335-0.50867 0.57778-0.0722 1.11-0.3276 1.6532-0.50867 0.67369-0.22456 1.3595-0.41076 2.0347-0.63583 0.95891-0.31964-0.22306 0.11153 0.763-0.3815 0.0081-4e-3 1.0476-0.25434 0.63583-0.25434" clip-path="url(#tree-1-clip)" fill="none" stroke="#646464" stroke-linecap="round" stroke-width="2"/>
<path d="m72.994 213.64c0.1152 0.53205 0.02074 1.1211 0.12717 1.6532 0.0186 0.0929 0.11159 0.16084 0.12717 0.25433 0.02787 0.16725-0.03325 0.34241 0 0.50867 0.11138 0.55692 0.38422 1.0931 0.50867 1.6532 0.23882 1.0747 0.45798 2.1707 0.89017 3.1792 0.25675 0.59909 0.63185 1.1776 0.89017 1.7803 0.06885 0.16064 0.05832 0.34802 0.12717 0.50866 0.12041 0.28096 0.33911 0.50867 0.50867 0.763 0.67754 1.0163 1.2224 1.7605 2.1618 2.5433 0.13816 0.11513 0.23186 0.28174 0.3815 0.3815 0.45172 0.30115 1.0423 0.39396 1.526 0.63584 0.37792 0.18896 0.70452 0.44581 1.1445 0.50866 0.58946 0.0842 1.1895 0.0428 1.7803 0.12717 0.1327 0.019 0.24928 0.10513 0.3815 0.12717 0.62398 0.10399 1.7874 0.0786 2.4162 0 0.13301-0.0166 0.2488-0.10821 0.3815-0.12717 0.29374-0.042 0.59748 0.0488 0.89017 0 0.26444-0.0441 0.49856-0.21026 0.763-0.25433 0.61675-0.1028 1.1787-0.23109 1.7803-0.3815 0.12337-0.0308 0.26776 0.0569 0.3815 0 0.31428-0.15715-0.0439-0.12717 0.25433-0.12717" clip-path="url(#tree-1-clip)" fill="none" stroke="#646464" stroke-linecap="round" stroke-width="2"/>
<path d="m62.312 213.77c-0.13083 0.51998-0.12918 1.0254-0.25433 1.526-0.05984 0.23937 0.05984 0.52363 0 0.763-0.31819 1.2728-0.57305 2.6125-0.763 3.9422-0.03597 0.25178 0.04988 0.51361 0 0.763-0.0186 0.093-0.08478 0.16956-0.12717 0.25434-0.04239 0.21194-0.1033 0.42101-0.12717 0.63583-0.10746 0.96711-0.01953 1.9561-0.12717 2.9248-0.10408 0.93668-0.11591 1.2345 0 2.1618 0.04206 0.33649-0.04206 0.68084 0 1.0173 0.10666 0.85325 0.13947 0.22561 0.25433 1.1445 0.46197 3.6958 2.4977 7.1004 5.341 9.5375 0.91224 0.78193 1.9721 1.6219 3.052 2.1618 0.11989 0.0599 0.26656 0.0582 0.3815 0.12717 0.10281 0.0617 0.16956 0.16955 0.25433 0.25433 0.12717 0.0848 0.2488 0.17851 0.3815 0.25434 2.8198 1.6113 6.2433 4.154 6.7398 7.63 0.36394 2.5476 0.0113 5.099-0.89017 7.5028-0.2373 0.63281-0.51534 1.3453-0.89017 1.9075-0.56671 0.85006 0.02909-0.13631-0.3815 0.89016-0.01603 0.0401-0.47773 0.47774-0.12717 0.12717" clip-path="url(#tree-1-clip)" fill="none" stroke="#646464" stroke-linecap="round" stroke-width="2"/>
<path d="m82.786 242.63c0.34024 1.4406 0.70733 4.268 1.7803 5.341 0.10807 0.10807 0.27343 0.14626 0.3815 0.25433 1.1774 1.1774-0.82247-0.48697 0.63583 0.763 4.0419 3.4645 8.8961 3.8167 13.861 2.289 1.2004-0.36937 2.4528-0.92946 3.5607-1.526 0.69677-0.37517 0.78366-0.56993 1.3988-1.0173 0.40556-0.29495 0.88858-0.55497 1.2717-0.89017 0.49901-0.43663 0.84043-0.68557 0.763-0.763-0.03-0.03-0.0972 0.03-0.12717 0-0.0445-0.0444 0.12717-0.77241 0.12717-0.50867 0 0.17478-0.0848 0.33912-0.12717 0.50867" clip-path="url(#tree-1-clip)" fill="none" stroke="#646464" stroke-linecap="round" stroke-width="2"/>
<path d="m46.543 226.36c0.86101 0.20759 1.8194 0.47438 2.5433 1.0173 0.09591 0.0719 0.15152 0.19265 0.25433 0.25433 1.034 0.62041-0.1362-0.26036 0.63583 0.25434 0.48181 0.3212 0.94438 0.67649 1.3988 1.0173 0.40139 0.30104 0.15877-0.0956 0.63583 0.3815 0.06703 0.067 0.0703 0.17851 0.12717 0.25433 0.14387 0.19184 0.35262 0.32661 0.50867 0.50867 0.73552 0.85811 1.2527 1.8316 1.526 2.9248 0.09476 0.37904 0.05004 0.75886 0.12717 1.1445 0.0186 0.093 0.10858 0.16139 0.12717 0.25433 0.12227 0.61138-0.12228 1.2961 0 1.9075 0.06978 0.3489 0.18455 0.66844 0.25433 1.0173 0.04157 0.20783-0.02998 0.42602 0 0.63584 0.06148 0.43037 0.31225 0.72901 0.3815 1.1445 0.12461 0.74769-0.17157 0.0162 0.12717 0.763 0.19034 0.47584 0.08294 0.0387 0.3815 0.63584 0.23801 0.47602 0.29853 0.79943 0.63583 1.2717 0.30275 0.42385 0.79126 0.66409 1.1445 1.0173 0.06702 0.067 0.06014 0.18731 0.12717 0.25433 0.28583 0.28583 0.41824 0.2436 0.763 0.3815 0.7599 0.30396 1.4857 0.68935 2.289 0.89017 0.45718 0.1143 0.82414 0.12647 1.2717 0.25434 0.52437 0.14981 2.2628 0.83868 2.6705 1.1445 0.9789 0.73417 2.086 2.3429 2.289 3.5607 0.42111 2.5267-0.55332 4.7268-1.2717 7.1213-0.06211 0.20703-0.08478 0.42389-0.12717 0.63584-0.08478 0.29672-0.16358 0.59521-0.25433 0.89016-0.15768 0.51248-0.3881 1.0036-0.50867 1.526-0.18955 0.82139-0.25325 1.7097-0.3815 2.5433-0.13326 0.86624-0.27253 1.544-0.12717 2.4162" clip-path="url(#tree-1-clip)" fill="none" stroke="#646464" stroke-linecap="round" stroke-width="2"/>
<path d="m89.78 240.22c0.01138 1.0196 0.24524 2.5047 1.1445 3.1792 0.07583 0.0569 0.16956 0.0848 0.25433 0.12717 0.12717 0.0848 0.26216 0.15886 0.3815 0.25433 0.49539 0.39632 0.86447 0.82389 1.3988 1.1445 0.57583 0.34549 1.3846 0.25433 2.0347 0.25433 2.2595 0 3.9457-0.48603 5.7225-1.9075 1.0355-0.82843 0.0158 0.14848 0.89017-1.0173 0.22369-0.29825 0.77952-0.61932 0.3815-1.0173" clip-path="url(#tree-1-clip)" fill="none" stroke="#646464" stroke-linecap="round" stroke-width="2"/>
<path d="m46.034 233.1c0.08478 0.21194 0.16956 0.42389 0.25433 0.63583 0 0.12717-0.04021 0.26086 0 0.3815 0.04833 0.145 0.19226 0.24184 0.25434 0.3815 0.88632 1.9942-0.48936-0.59721 0.63583 1.6532 0.11054 0.22108 0.28111 0.40997 0.3815 0.63584 0.07098 0.15971 0.06226 0.34639 0.12717 0.50866 0.10561 0.26402 0.28432 0.49577 0.3815 0.763 0.20962 0.57644 0.33199 1.1914 0.50867 1.7803 0.29972 0.99907 0.52039 1.8858 0.63583 2.9248 0.02387 0.21482 0.12717 0.41969 0.12717 0.63583 0 0.25784-0.09869 0.50674-0.12717 0.763-0.45688 4.1119-1.8339 6.7312-4.9595 9.4104-0.42264 0.36226-0.82026 0.82207-1.2717 1.1445-0.89481 0.63915-1.9248 1.0714-2.9248 1.526-0.34515 0.15689-0.66234 0.37555-1.0173 0.50867-0.91858 0.34447-2.3281 0.3815-3.3063 0.3815-1.4991 0-2.9856-0.31022-4.4508-0.63583-0.50118-0.11137-1.017-0.31787-1.526-0.3815-0.26156-0.0327-0.89017 0.17853-0.89017-0.25434" clip-path="url(#tree-1-clip)" fill="none" stroke="#646464" stroke-linecap="round" stroke-width="2"/>
<path d="m52.901 248.36c1.8147 0.74765-2.0911-0.98905 1.0173 0.25433 0.22264 0.0891 0.32142 0.35888 0.50867 0.50867 0.57095 0.45676 0.86747 0.96059 1.1445 1.6532 1.1384 2.8459 0.69931 6.3459-0.3815 9.156-0.21194 0.55106-0.39152 1.1157-0.63583 1.6532-0.10228 0.22502-0.27922 0.41082-0.3815 0.63584-0.11094 0.24406-0.1434 0.51894-0.25433 0.763-0.10228 0.22501-0.27922 0.41082-0.3815 0.63583-0.11094 0.24406-0.1434 0.51894-0.25433 0.763-1.0799 2.3758 0.36418-1.3064-0.763 1.3988-0.50859 1.2206-1.043 2.5004-1.2717 3.815-0.39275 2.2583-0.09484 3.085 0.763 5.0867" clip-path="url(#tree-1-clip)" fill="none" stroke="#646464" stroke-linecap="round" stroke-width="2"/>
<path d="m91.56 260.31c-0.29508-0.62837-0.55628-1.3392-1.1445-1.7803-0.6586-0.49395-1.1465-0.52711-1.9075-0.63584-0.1327-0.0189-0.24928-0.10513-0.3815-0.12716-0.78297-0.1305-1.6506 0.0315-2.4162 0.12716-0.16825 0.021-0.34042-0.021-0.50867 0-0.33498 0.0419-1.0082 0.30248-1.2717 0.38151-1.8643 0.55929-3.523 1.7756-4.578 3.4335-0.79161 1.244-0.78172 2.7866-0.89017 4.1965-0.04552 0.59169-0.11638 1.1984 0 1.7803 0.06331 0.31655 0.25433 0.59343 0.3815 0.89017 0.33268 0.77626 0.56211 1.3073 1.2717 1.7803" clip-path="url(#tree-1-clip)" fill="none" stroke="#646464" stroke-linecap="round" stroke-width="2"/>
<path d="m102.37 262.47c-0.89527-1.1995-0.61642-2.1288-0.12717-3.4335 0.47704-1.2721 0.29775-1.1145 1.3988-2.289 0.97291-1.0378 4.9892-4.137 6.104-1.9075" clip-path="url(#tree-1-clip)" fill="none" stroke="#646464" stroke-linecap="round" stroke-width="2"/>
<path d="m113.43 266.67c-0.12716-0.29673-0.3815-0.56735-0.3815-0.89019 0-2.1147 2.3542-4.913 3.9422-6.104 0.48553-0.36415 1.0849-0.5499 1.6532-0.763 0.19845-0.0744 0.42389 0 0.63583 0" clip-path="url(#tree-1-clip)" fill="none" stroke="#646464" stroke-linecap="round" stroke-width="2"/>
<path d="m22.763 260.44c0.25433-0.12716 0.48006-0.35321 0.763-0.3815 0.18863-0.0189 0.33911 0.16956 0.50867 0.25434 0.25433 0.12716 0.51264 0.24668 0.763 0.3815 2.0667 1.1128 3.8861 2.4311 4.9595 4.578 0.33418 0.66836 0.42035 1.4765 0.763 2.1618" clip-path="url(#tree-1-clip)" fill="none" stroke="#646464" stroke-linecap="round" stroke-width="2"/>
<path d="m86.346 191.51c-0.49184-0.29121-0.46438-0.87351-0.763-1.2717-0.27224-0.36299-0.55509-0.72868-0.763-1.1445-0.71919-1.4384 0.15459 0.15789-0.3815-1.2717-0.05367-0.14311-0.17851-0.24881-0.25433-0.3815-0.34233-0.59908-0.67173-1.2522-0.89017-1.9075-0.24999-0.74997-0.4343-1.5659-0.763-2.289-0.10228-0.22501-0.27096-0.41476-0.3815-0.63584-0.50335-1.0067-0.82489-2.1138-1.1445-3.1792-0.80045-2.6682 0.24281 1.1099-0.50867-1.1445-0.33213-0.99638-0.54732-2.4984-0.63584-3.5607-0.07633-0.91596 0.03628-0.36276 0.12717-1.2717 0.066-0.65996 0.01868-1.3837 0.12717-2.0347 0.11453-0.68715 0.33528-0.76305 0.50867-1.3988 0.06784-0.24876 0.06463-0.51286 0.12717-0.763 0.30479-1.2192 0.14194-0.32875 0.63583-1.3988 0.15177-0.32884 0.23884-0.68445 0.3815-1.0173 0.55124-1.2862 1.6593-3.401 2.5433-4.4508 0.48306-0.57363 1.0111-1.108 1.526-1.6532 0.73976-0.78328 1.527-1.527 2.289-2.289 0.16956-0.16955 0.30915-0.37565 0.50867-0.50866 0.08041-0.0536 0.25433-0.12191 0.25433-0.12717 0-0.0424-0.08478 0-0.12717 0" clip-path="url(#tree-1-clip)" fill="none" stroke="#646464" stroke-linecap="round" stroke-width="2"/>
<path d="m74.901 128.82c-0.16956 0-0.34564-0.0466-0.50867 0-0.39563 0.11304-0.40976 0.35325-0.63584 0.63584-0.31195 0.38994-0.72913 0.74101-1.0173 1.1445-0.40629 0.56881-0.65462 1.2598-0.89017 1.9075-0.27502 0.7563-0.59329 1.497-0.763 2.289-0.20113 0.93862-0.19858 1.8499-0.25433 2.7977-0.05036 0.85608-0.18871 1.6817-0.12717 2.5433 0.10002 1.4002 0.36068 2.8208 0.63583 4.1965 0.17311 0.86557 0.36776 2.1344 0.763 2.9248 0.13574 0.27148 0.26678 0.4064 0.3815 0.63583 0.01894 0.0379-0.04239 0.12717 0 0.12717s0-0.0848 0-0.12717c0-0.32345-0.02681-0.27655 0.12717-0.63583 0.26955-0.62895 0.47935-1.2835 0.763-1.9075 0.68697-1.5113 1.1046-2.9768 1.526-4.578 0.123-0.4674 0.29243-0.92381 0.3815-1.3988 0.03906-0.20831 0-0.42389 0-0.63583 0.04239-0.33911 0.06014-0.68222 0.12717-1.0173 0.06052-0.30261 0.19381-0.58757 0.25433-0.89017 0.24804-1.2402 0.3815-2.8052 0.3815-4.0693 0-0.55438 0.0028-1.2662-0.25433-1.7803-0.11342-0.22685-1.1322-1.2878-1.1445-1.3988-0.02961-0.26645 0.16956-0.50866 0.25433-0.763z" clip-path="url(#tree-1-clip)" fill="none" stroke="#646464" stroke-linecap="round" stroke-width="2"/>
<path d="m64.728 121.95c-0.92455 1.0451-2.2206 1.4282-3.4335 2.0347-0.22107 0.11053-0.40865 0.28413-0.63583 0.3815-0.07793 0.0334-0.17391-0.0268-0.25433 0-0.39194 0.13064-0.53379 0.38987-0.89017 0.50866-0.45851 0.15284-0.9463 0.2118-1.3988 0.3815-0.96582 0.36219-1.9338 0.73417-2.9248 1.0173-1.1821 0.33774-2.4721 0.3815-3.6878 0.3815-2.457 0-3.8427-0.0526-5.9768-1.6532-0.54176-0.40632-0.99585-1.0079-1.3988-1.526-0.88765-1.1413-1.8228-2.3528-2.4162-3.6878-0.25593-0.57585-0.42048-1.1881-0.63583-1.7803-0.50304-1.3833-1.0111-2.7748-1.3988-4.1965-0.72679-2.6649-1.2536-5.2527-1.3988-8.0115-0.07574-1.439-0.04723-2.8848-0.12717-4.3237-0.14919-2.6855-1.1261-6.155-2.4162-8.5202-0.15458-0.28341-0.21541-0.61335-0.3815-0.89017-0.16108-0.26846-0.44699-0.51121-0.63583-0.763-0.17489-0.23318-0.0668-0.32113-0.25434-0.50867" clip-path="url(#tree-1-clip)" fill="none" stroke="#646464" stroke-linecap="round" stroke-width="2"/>
<path d="m46.034 101.35c-0.19153 1.7285-0.42938 3.4696-0.50867 5.2138-0.14986 3.297 0.99607 8.135 3.1792 10.682 0.38628 0.45066 0.389 0.64146 0.89017 1.0173 0.15166 0.11374 0.35441 0.14414 0.50867 0.25433 0.14634 0.10453 0.22536 0.29227 0.3815 0.3815 0.51018 0.29153 1.2213 0.3256 1.7803 0.3815 0.55831 0.0558 0.74975 0.19241 1.2717 0.12717 0.92606-0.11576 2.0333-0.44408 2.7977-1.0173 0.52161-0.3912 0.88646-1.0124 1.2717-1.526 0.34777-0.4637 0.78802-0.99093 1.0173-1.526 0.13292-0.31016 0.21275-0.92931 0.12717-1.2717-0.01453-0.0582-0.10036-0.0735-0.12717-0.12717-0.24728-0.49457-0.12717 0.58437-0.12717-0.12716" clip-path="url(#tree-1-clip)" fill="none" stroke="#646464" stroke-linecap="round" stroke-width="2"/>
<path d="m64.982 122.08c0.93638-0.55243 0.17918-0.35835 0.3815-0.763 0.20405-0.40811 0.60552-0.7887 0.89017-1.1445 0.34335-0.42919 0.58726-0.94447 0.89017-1.3988 0.67054-1.0058 1.4524-1.9493 2.1618-2.9248 0.31501-0.43314 0.57516-0.9657 0.89017-1.3988 0.74697-1.0271 1.5268-2.0357 2.289-3.052 0.3668-0.48908 0.64459-1.0414 1.0173-1.526 1.2838-1.6689 2.7856-3.2697 4.3237-4.7052 1.5187-1.4175 3.2899-2.4736 4.9595-3.6878 0.21951-0.15964 0.40684-0.36295 0.63583-0.50867 0.72952-0.46423 1.5595-0.80743 2.289-1.2717 0.22899-0.14572 0.40468-0.36642 0.63584-0.50867 1.4085-0.86674 2.9762-1.4245 4.4508-2.1618 0.60914-0.30457 2.0563-1.1445 2.6705-1.1445" clip-path="url(#tree-1-clip)" fill="none" stroke="#646464" stroke-linecap="round" stroke-width="2"/>
<path d="m83.803 136.96c0.03378-0.76741 0.52913-1.4149 0.63584-2.1618 0.1197-0.83793 0.17691-1.6916 0.25433-2.5433 0.09306-1.0236 0.29636-2.0303 0.3815-3.052 0.12632-1.5159-0.10839-3.0605 0-4.578 0.02135-0.29898 0.10418-0.59132 0.12717-0.89017 0.08105-1.0536-0.07529-2.125 0-3.1792 0.17663-2.4729 0.53113-5.0044 1.6532-7.2485 0.59899-1.198 1.6673-2.1936 2.5433-3.1792 0.14081-0.15841 0.22467-0.3661 0.3815-0.50867 0.31365-0.28514 0.68402-0.50111 1.0173-0.763 1.777-1.3962 3.7095-2.8853 5.8497-3.6878 0.41437-0.15539 0.8564-0.22851 1.2717-0.3815 0.39174-0.14433 0.75082-0.36972 1.1445-0.50867 0.74675-0.26355 1.5186-0.45241 2.289-0.63583 2.3535-0.56035 0.48264-0.019 2.4162-0.3815 0.34356-0.0644 0.67086-0.20814 1.0173-0.25434 0.29412-0.0392 0.59396 0.0174 0.89017 0 0.9353-0.055 1.8661-0.19953 2.7977-0.25433 1.0845-0.0638 2.1068 0.0506 3.1792 0.12717 1.4897 0.1064 2.542-0.0643 3.9422 0.63583" clip-path="url(#tree-1-clip)" fill="none" stroke="#646464" stroke-linecap="round" stroke-width="2"/>
<path d="m31.41 108.22c-0.08901-2.2098 0.27462-4.4009 0.12717-6.6127-0.05708-0.85625-0.16992-1.6991-0.25433-2.5433-0.04301-0.43014-0.21132-0.84153-0.25433-1.2717-0.25612-2.5612-0.77421-5.1315-1.3988-7.63-0.2587-1.0348-0.79862-1.9787-1.2717-2.9248-0.92701-1.854-1.919-3.6531-3.3063-5.2138-1.1634-1.3089 0.20248 0.32965-1.1445-1.0173-0.19192-0.19192-0.33203-0.42975-0.50867-0.63583-0.59143-0.69-1.3122-1.2385-2.0347-1.7803-1.2163-0.91225-2.5423-1.9212-3.9422-2.5433-0.15971-0.07098-0.34802-0.05832-0.50867-0.12717-0.59103-0.2533-1.1159-0.763-1.7803-0.763" clip-path="url(#tree-1-clip)" fill="none" stroke="#646464" stroke-linecap="round" stroke-width="2"/>
<path d="m26.877 96.168c1.3513-4.3712-7.1119-14.875-8.5651-13.001" clip-path="url(#tree-1-clip)" fill="none" stroke="#646464" stroke-linecap="round" stroke-width="2"/>
<path d="m27.491 72.266c0.14017 2.1673 1.136 2.9671 2.6192 4.5227 1.0871 1.1402 3.3586 1.7911 4.2686 2.5061" clip-path="url(#tree-1-clip)" fill="none" stroke="#646464" stroke-linecap="round" stroke-width="2"/>
<path d="m35.734 69.687c1.9871 1.104 9.7026-1.3929 11.678-2.09" clip-path="url(#tree-1-clip)" fill="none" stroke="#646464" stroke-linecap="round" stroke-width="2"/>
<path d="m58.497 107.84c1.5758 0.45433 2.8803-0.35476 4.1965-1.1445 2.8324-1.6994 0.2139-0.0183 3.1792-2.0347 2.0147-1.37 3.8907-2.8388 5.7225-4.4508 1.4143-1.2446 2.8338-2.5142 4.1965-3.815 1.5606-1.4897 3.0216-3.0839 4.578-4.578 0.90917-0.87281 1.886-1.6731 2.7977-2.5433 0.91062-0.86923 1.737-1.8259 2.6705-2.6705 2.4481-2.2149 5.0997-4.2818 8.0115-5.8497 0.59315-0.31939 1.2339-0.65073 1.9075-0.763 0.12544-0.0209 0.29158 0.08992 0.3815 0 0.05995-0.05995 0-0.33911 0-0.25433v0.25433" clip-path="url(#tree-1-clip)" fill="none" stroke="#646464" stroke-linecap="round" stroke-width="2"/>
<path d="m60.15 98.554c0.21195 0.08478 0.40986 0.22205 0.63584 0.25433 0.09383 0.01342 0.1632-0.10113 0.25433-0.12717 1.0716-0.30617 1.9687-0.64811 2.9248-1.2717 2.2056-1.4385 4.2204-3.0119 6.2312-4.7052 4.5795-3.8564 9.413-8.8095 11.064-14.751 0.29146-1.0493 0.57521-2.2151 0.63583-3.3063 0.02352-0.42324-0.02228-0.84836 0-1.2717 0.10219-1.9416 0.21583-3.8991 0.12717-5.8497-0.25963-5.7119-1.4702-11.355-1.9075-17.04-0.11477-1.492 0.45302-2.9693 1.0173-4.3237 0.24187-0.5805 1.0173-1.8454 1.0173-2.0347" clip-path="url(#tree-1-clip)" fill="none" stroke="#646464" stroke-linecap="round" stroke-width="2"/>
<path d="m61.422 89.271c0.21194 0.08478 0.40933 0.22602 0.63583 0.25433 0.13301 0.01662 0.24928-0.10513 0.3815-0.12717 0.83686-0.13948 0.81882-0.21152 1.526-0.63583 0.24383-0.1463 0.5231-0.22884 0.763-0.3815 1.2319-0.78392 2.2368-1.8255 3.1792-2.9248 2.2895-2.6711 3.572-5.9142 4.4508-9.2832 0.37383-1.433 0.76675-2.9698 0.89017-4.4508 0.09505-1.1405 0-2.289 0-3.4335 0-1.2526 0.03872-1.653-0.12717-2.9248-0.23578-1.8076-0.70452-3.5811-1.1445-5.341-0.42346-1.6939-0.54024-2.7403-0.763-4.578-0.22094-1.8227-0.40732-3.7595-0.25433-5.5953 0.09061-1.0873 0.2898-1.7763 0.50867-2.7977 0.0993-0.4634 0.11815-0.9449 0.25433-1.3988 0.05447-0.18157 0.16956-0.33911 0.25433-0.50867 0.04239-0.21194 0.07475-0.42615 0.12717-0.63584 0.05536-0.22145 0.25434-0.40756 0.25434-0.63583 0-0.1977-0.12717-0.1977-0.12717 0" clip-path="url(#tree-1-clip)" fill="none" stroke="#646464" stroke-linecap="round" stroke-width="2"/>
<path d="m114.2 98.427c-0.69735-0.54602-0.90996-1.266-1.2717-2.0347-0.61237-1.3013-0.89364-1.5747-1.2717-2.9248-0.534-1.9071-0.69411-3.8891-0.89017-5.8497-0.12885-1.2885-0.3815-2.6477-0.3815-3.9422 0-2.5145 0.57648-5.1386 1.3988-7.5028 0.31613-0.90889 0.87788-1.8601 1.3988-2.6705 0.3518-0.54724 1.1608-1.5781 1.526-2.0347 0.0375-0.04681 0.12717-0.06722 0.12717-0.12717 0-0.49991-0.12717 0.37274-0.12717-0.12717" clip-path="url(#tree-1-clip)" fill="none" stroke="#646464" stroke-linecap="round" stroke-width="2"/>
<path d="m122.72 89.398c-0.0912-0.23434-0.69011-0.23146-0.89017-0.3815-0.28658-0.21493-0.42635-0.50114-0.63584-0.763-0.36309-0.45386-0.80107-0.79087-1.1445-1.2717-0.31155-0.43618-0.52413-0.9211-0.763-1.3988-1.2191-2.4382-1.6183-4.9601-0.89017-7.63 0.36132-1.3248 1.0016-2.5565 1.526-3.815 0.27813-0.66751 0.46223-1.373 0.763-2.0347 0.36837-0.81041 0.7161-1.5727 1.0173-2.4162 0.50633-1.4177 0.65537-2.8758 1.0173-4.3237 0.065-0.26009 0.19816-0.50086 0.25433-0.763 0.28454-1.3279 0.41198-2.7263 0.63583-4.0693 0.252-1.512 0.27685-4.0727 0-5.5953-0.0864-0.47508-0.28768-0.92977-0.3815-1.3988-0.0139-0.06945-0.10139-0.99156-0.12716-1.0173-0.0424-0.04239-0.12717 0.06722-0.12717 0.12717" clip-path="url(#tree-1-clip)" fill="none" stroke="#646464" stroke-linecap="round" stroke-width="2"/>
<path d="m95.502 91.56c0.82312 0.768 1.3655 1.747 2.1618 2.5433 0.16956 0.16956 0.29709 0.39582 0.50867 0.50867 2.2438 1.1967 5.3668 0.61719 6.867-1.526 1.5239-2.177 1.9715-6.0814 1.2717-8.6473-0.0601-0.22023-0.1872-0.41766-0.25433-0.63584-0.1542-0.50114-0.2157-1.0286-0.3815-1.526-0.32522-0.97565-0.904-1.6387-1.526-2.4162-0.61591-0.76988 0.232 0.10484-0.25434-0.3815" clip-path="url(#tree-1-clip)" fill="none" stroke="#646464" stroke-linecap="round" stroke-width="2"/>
<path d="m62.045 147.47c0.31611-1.4892 0.44588-2.9919 0.71936-4.496 0.13457-0.74012 0.30773-1.5706 0.17984-2.3379-0.02204-0.13222-0.15355-0.22824-0.17984-0.35968-0.03527-0.17635 0.06679-0.37254 0-0.53952-0.06297-0.15743-0.29671-0.20226-0.35968-0.35968-0.06679-0.16698 0.03527-0.36318 0-0.53953-0.1757-0.87848-2.0186-3.0148-2.6976-3.5968-0.31557-0.55315-1.0043-0.53716-1.4387-0.8992-0.16604-0.13837-0.1909-0.4045-0.35968-0.53953-0.14803-0.11842-0.38179-0.0747-0.53952-0.17984-0.21162-0.14108-0.32791-0.39844-0.53952-0.53952-0.15773-0.10516-0.36997-0.0951-0.53952-0.17984-0.38665-0.19333-0.6924-0.52604-1.079-0.71937-0.80611-0.40305-2.2158-0.89204-3.0573-1.079-0.59639-0.13254-5.5751-0.41119-5.5751 0.17984" clip-path="url(#tree-1-clip)" fill="none" stroke="#646464" stroke-linecap="round" stroke-width="2"/>
<path d="m15.038 65.976c2.8686-0.44132 5.1468-2.4954 7.3616-4.325" clip-path="url(#tree-1-clip)" fill="none" stroke="#646464" stroke-linecap="round" stroke-width="2"/>
<path d="m100.35 133.08v0.71936" clip-path="url(#tree-1-clip)" fill="none" stroke="#646464" stroke-linecap="round" stroke-width="2"/>
<path d="m76.432 117.98c0.7699-2.032 1.8487-3.909 3.2371-5.5751 0.51925-0.62309 0.73928-1.2988 1.4387-1.7984 0.15426-0.11018 0.38179-0.0747 0.53952-0.17984 0.21162-0.14108 0.34092-0.38064 0.53952-0.53952 0.49682-0.39745 1.2464-0.5838 1.7984-0.89921 0.42103-0.24059 0.94255-0.63666 1.4387-0.71936 0.23652-0.0394 0.48199 0.0339 0.71936 0 0.55391-0.0791 1.0647-0.4604 1.6186-0.53953 0.74081-0.10583 5.2464-0.2108 5.5751-0.53952" clip-path="url(#tree-1-clip)" fill="none" stroke="#646464" stroke-linecap="round" stroke-width="2"/>
<path d="m72.656 157.72c-0.0044 0.32001-0.02912 1.3171-0.17984 1.6186-0.07583 0.15165-0.27245 0.21429-0.35968 0.35968-0.36542 0.60904-0.0013 1.1734-0.17984 1.7984-0.05938 0.20783-0.29133 0.33447-0.35968 0.53952-0.05687 0.17062 0.0223 0.36108 0 0.53953-0.13612 1.089-0.17984 2.1379-0.17984 3.2371 0 0.29893-0.09786 1.1928-0.17984 1.4387-0.01897 0.0569-0.11989 0-0.17984 0" clip-path="url(#tree-1-clip)" fill="none" stroke="#646464" stroke-linecap="round" stroke-width="2"/>
<path d="m40.284 266.34c0.74153-0.6732 0.88426-0.53954 1.7984-0.53954 2.0091 0 1.8205 0.56163 3.0573 1.7984 0.09478 0.0948 0.2649 0.0851 0.35968 0.17984 0.28435 0.28434 0.31646 0.74445 0.53952 1.079 0.52 0.77999 0.23204-0.0494 0.53952 0.71935 0.30751 0.76877 0.61804 1.7071 0.71936 2.5178 0.03718 0.29744-0.06502 0.60661 0 0.89921 0.05816 0.2617 0.26555 0.46834 0.35968 0.71938 0.35541 0.94776 0.8992 2.2869 0.8992 3.2371" clip-path="url(#tree-1-clip)" fill="none" stroke="#646464" stroke-linecap="round" stroke-width="2"/>
<path d="m59.348 75.713c0.98023-0.1737 2.0864 0.21577 3.0573 0 0.26171-0.05816 0.46159-0.28603 0.71936-0.35968 0.17292-0.04941 0.37113 0.06315 0.53952 0 0.163-0.06113 1.7759-0.90197 1.9783-1.079 0.66277-0.57993 0.87815-1.3966 1.2589-2.1581 0.24993-0.49986 0.75238-1.1047 0.8992-1.6186 0.09325-0.32638-0.06994-0.9092 0-1.2589 0.34727-1.7363 0.02056 1.4746 0.35968-0.8992 0.12862-0.90037 0.13153-3.1262-0.17984-3.9565-0.35993-0.95982-0.28043-0.16765-0.71936-0.89921-0.09753-0.16255-0.09507-0.36997-0.17984-0.53952-0.44438-0.88875-1.0324-1.5836-1.7984-2.1581-0.3567-0.26753-1.0188-0.99507-1.4387-1.079-0.23513-0.04703-0.48423 0.04703-0.71936 0-0.08313-0.01662-0.11989-0.11989-0.17984-0.17984h-0.35968" clip-path="url(#tree-1-clip)" fill="none" stroke="#646464" stroke-linecap="round" stroke-width="2"/>
<path d="m93.517 51.255c-0.81376 0.12707-1.7108-0.16139-2.5178 0-0.31656 0.06331-0.58265 0.29637-0.8992 0.35968-0.17635 0.03527-0.36505-0.04362-0.53952 0-0.29079 0.07269-0.46234 0.38531-0.71936 0.53952-1.2098 0.72585-1.8897 2.0748-2.1581 3.417 0.34983 0.49965-0.29466 0.45928-0.35968 0.71936-0.14987 0.59947 0.09991 0.39965 0 0.8992-0.28038 1.4019-0.17984 2.871-0.17984 4.3162 0 0.77948-0.12911 1.7431 0 2.5178 0.09235 0.5541 0.44718 1.0645 0.53952 1.6186 0.11006 0.66039 0.24948 1.3171 0.35968 1.9782 0.04928 0.29566-0.11132 0.62091 0 0.89921 0.08027 0.20068 0.27941 0.33884 0.35968 0.53952 0.13316 0.33289 0.04805 1.6007 0.17984 1.7984 0.09405 0.14108 0.26563 0.2186 0.35968 0.35968 0.16956 0.25433 0.06632 0.6154 0.17984 0.8992 0.18925 0.47312 0.64752 1.4748 1.079 1.7984 0.09591 0.07194 0.25992-0.06651 0.35968 0 0.11153 0.07435 0.06831 0.28533 0.17984 0.35968 0.09976 0.0665 0.24594-0.03791 0.35968 0 0.08043 0.02681 0.09942 0.15303 0.17984 0.17984 0.87763 0.29254 1.9331 0.17984 2.8775 0.17984" clip-path="url(#tree-1-clip)" fill="none" stroke="#646464" stroke-linecap="round" stroke-width="2"/>
</g>
</svg>
