<?xml version="1.0" encoding="UTF-8"?>
<svg width="141.58mm" height="227.07mm" version="1.1" viewBox="0 0 141.58 227.07" xmlns="http://www.w3.org/2000/svg">
<defs>
<clipPath id="tree-3-clip">
<path d="m52.771 96.711c9.1888-0.13427 9.6986 98.41-4.3605 138.46-5.6556 16.111-23.542 25.922-29.874 27.691l1.0319 3.3501c13.066-2.6011 38.068-15.288 18.582 5.9242 0.0041 0.0233 5.7225 0 5.7225 0 6.2001-8.1591 12.492-15.498 17.931-16.023 8.6086 0.23242 9.5845 11.847 16.15 17.549h4.4508c-10.751-11.83-10.049-20.491-0.763-16.277 12.526 5.648 31.127 18.672 35.722 16.167l3.0637-1.6703c-14.403-3.76-21.83-8.1772-24.035-15.896 14.268-1.4002 29.248 6.5994 42.89 6.6199 0 0-0.0917-3.3113-0.28884-3.4407-14.344-0.61273-25.656-7.236-34.717-13.48-28.442-55.517-24.096-78.106-1.526-123.61 6.8742-20.928 26.269-53.504 27.468-74.774h-9.6647s-2.414 16.114-4.8323 21.364c0 0-6.7264-6.4465-11.064-21.364l-5.8233-0.18156s10.952 19.572 12.169 33.523c1.3782 15.802-15.301 25.425-18.808 30.115-5.6004 5.1632-7.7062-12.248-10.597-19.901-6.3254-16.747 3.2932-37.18 1.8222-43.046-6.3715 1.0436-20.609-2.9189-24.416 0.50867-0.69136 6.6314-2.8383 21.916-4.0693 27.468-14.303 3.3087-29.269 3.0234-41.202-0.50867-11.834-6.1647-5.7156-21.516-10.682-28.485-1.7871 1.2881-3.7408 3.3375-5.0867 4.578-0.11989 0.11989 0.075828 0.35701 0 0.50867-0.55336 6.3207-0.30393 17.839 1.526 22.89 4.9263 12.197 42.149 21.772 53.28 21.937z" fill="#8d8d8d"/>
</clipPath>
</defs>
<g transform="translate(2.2949 -46.797)" fill="#fff" fill-opacity=".10204">
<g fill-opacity=".10204">
<path d="m52.771 96.711c9.1888-0.13427 9.6986 98.41-4.3605 138.46-5.6556 16.111-23.542 25.922-29.874 27.691l1.0319 3.3501c13.066-2.6011 38.068-15.288 18.582 5.9242 0.0041 0.0234 5.7225 0 5.7225 0 6.2001-8.1591 12.492-15.498 17.931-16.023 8.6086 0.23242 9.5845 11.847 16.15 17.549l4.4508-1e-5c-10.751-11.83-10.049-20.491-0.763-16.277 12.526 5.648 31.127 18.672 35.722 16.167l3.0637-1.6703c-14.403-3.7601-21.83-8.1772-24.035-15.896 14.268-1.4002 29.248 6.5994 42.89 6.6199 0 0-0.0917-3.3113-0.28884-3.4407-14.344-0.61273-25.656-7.236-34.717-13.48-28.442-55.517-24.096-78.106-1.526-123.61 6.8742-20.928 26.269-53.504 27.468-74.774h-9.6647s-2.414 16.114-4.8323 21.364c0 0-6.7264-6.4465-11.064-21.364l-5.8233-0.18156s10.952 19.572 12.169 33.523c1.3782 15.802-15.301 25.425-18.808 30.115-5.6004 5.1632-7.7062-12.248-10.597-19.901-6.3254-16.747 3.2932-37.18 1.8222-43.046-6.3715 1.0436-20.609-2.9189-24.416 0.50867-0.69136 6.6314-2.8383 21.916-4.0693 27.468-14.303 3.3087-29.269 3.0234-41.202-0.50867-11.834-6.1647-5.7156-21.516-10.682-28.485-1.7871 1.2881-3.7408 3.3375-5.0867 4.578-0.11989 0.11989 0.075828 0.35701 0 0.50867-0.55336 6.3207-0.30393 17.839 1.526 22.89 4.9263 12.197 42.149 21.772 53.28 21.937z" fill="#8d8d8d" fill-opacity="1"/>
<path d="m110.96 243.04c-3.4438 2.0219-7.2079 2.8376-11.175 2.8596-1.3748 8e-3 -2.715 0.0992-4.0707-0.2318-7.5022-1.8315-15.244-10.055-17.137-17.454-2.2257-8.6979 3.1113-22.18 10.277-27.271 2.3498-1.6694 5.0106-2.8604 7.6074-4.1115 2.4354-1.1734 5.6398-1.0486 8.1329-1.0624 1.6111 0.25935 1.0117 0.24873 1.7817 0.24447" clip-path="url(#tree-3-clip)" fill="none" stroke="#6b6b6b" stroke-linecap="round" stroke-width="2"/>
<path d="m37.201 241.92c0.59225 0.46845 1.4765 1.3129 2.2974 1.5133 0.83321 0.20341 2.5084-0.0139 3.3063-0.0183 4.1656-0.023 6.6937-1.0273 10.155-3.3626 0.76018-0.51288 1.5824-0.94409 2.2805-1.5386 5.9069-5.0304 11.054-14.257 11.577-22.191 0.20003-3.0369-0.26729-6.1203-0.05068-9.1559 0.16322-2.2873 0.29318-4.5875 0.47065-6.8697 0.07996-1.0283 0.41836-2.026 0.49177-3.0548 0.11813-1.6555 0.11267-3.1936 0.48191-4.8351 0.95415-4.2417 1.553-8.5344 2.7272-12.732 0.19007-0.67945 0.70962-3.0924 0.9962-3.8206 1.216-3.0895 3.0044-6.1276 4.783-8.9283 3.3194-5.2269 8.0701-9.1039 13.156-12.535 0.50678-0.34192 0.994-0.71481 1.5203-1.0258 0.42503-0.25109 6.5003-3.2479 5.3297-2.0642" clip-path="url(#tree-3-clip)" fill="none" stroke="#6b6b6b" stroke-linecap="round" stroke-width="2"/>
<path d="m90.958 166.6c-0.0019-0.33911 0.33348-1.0192-0.0056-1.0173-0.33911 2e-3 0.28048 0.81869 0.0056 1.0173-1.4844 0.22045-1.5863-0.0259-2.5391 0.77706-1.6533 1.3934-2.7607 3.1259-4.0425 4.8548-0.88938 1.1996-1.4674 1.7066-2.2721 3.0646-0.38652 0.65237-0.63797 1.3773-1.0061 2.0403-1.9238 3.4649-3.8762 5.8666-5.2874 9.6941-1.1261 3.0543-2.0487 6.1991-2.4912 9.4243-0.29532 2.1522 0.1078 3.205 0.28389 5.3395 0.10004 1.2127-0.16583 3.3173 1.5457 3.5522 1.1523 0.15811 4.0073-4.124 4.5512-4.8576 2.7168-3.6645 5.1349-7.5444 7.8223-11.234 1.6964-2.3292 3.4442-4.9037 5.5572-6.8979 1.9115-1.804 1.8239-1.2306 3.8009-2.5644 0.63896-0.4311 4.8483-3.3332 5.577-3.3373" clip-path="url(#tree-3-clip)" fill="none" stroke="#6b6b6b" stroke-linecap="round" stroke-width="2"/>
<path d="m46.807 231.44c2.3994-1.1802 4.4474-2.8128 6.5886-4.3602 1.5818-1.1431 2.7965-3.1796 3.7882-4.8534 0.46744-0.78894 1.0724-1.4934 1.5133-2.2974 2.2516-4.1063 2.3787-8.9578 1.7057-13.489-0.17821-1.2-0.42332-0.4102-0.77284-1.7761-0.08407-0.32853 0.07843-0.68879-0.0056-1.0173-0.2624-1.0255-0.9268-2.2315-1.5429-3.0435-0.75575-0.99614-1.1666-2.2561-1.7986-3.2964-0.65168-1.0726-2.5369-3.2739-3.5831-4.0496-0.15228-0.1129-0.37528-0.11822-0.51007-0.25152-0.13479-0.1333-0.15112-0.3501-0.25715-0.50725-0.26482-0.3925-0.6883-0.3394-1.0201-0.50303-0.31514-0.15539-0.25702-0.48393-0.25433 1e-3" clip-path="url(#tree-3-clip)" fill="none" stroke="#6b6b6b" stroke-linecap="round" stroke-width="2"/>
<path d="m67.272 206.66c-0.20701-0.96222-0.02816-2.1007-0.27122-3.0506-0.04699-0.18365-0.22494-0.32044-0.25714-0.50726-0.1152-0.66836 0.05388-1.3596-0.01127-2.0346-0.12089-1.2528-0.54589-2.158-0.78129-3.3021-0.12318-0.59866-0.11382-1.1913-0.26418-1.7789-0.55973-2.1874-1.7832-3.9828-2.3228-6.0912 0.15074-0.46118-0.41462-0.47073-0.51288-0.76018-0.1274-0.37528-0.12979-0.88268-0.26137-1.2702-0.22875-0.67379-0.80637-1.1243-1.0272-1.7747-0.57703-1.6997-1.8299-4.0995-2.8286-5.5798-0.79864-1.1837-1.0803-2.6182-1.8014-3.8051-0.1245-0.20493-0.36654-0.31481-0.51147-0.50585-0.48167-0.63486-0.79724-1.3874-1.2829-2.0276-0.51848-0.68339 0.0019-0.4168-0.5157-1.2688-0.12451-0.20493-0.36654-0.31481-0.51148-0.50584-0.22916-0.30205-0.28513-0.71246-0.51429-1.0145-0.57912-0.76331-1.2101-1.5108-1.793-2.2791-0.22916-0.30205-0.24472-0.7479-0.51429-1.0145-0.13479-0.1333-0.37528-0.11821-0.51007-0.25151-0.61729-0.6105-0.93427-1.4299-1.5372-2.0262" clip-path="url(#tree-3-clip)" fill="none" stroke="#6b6b6b" stroke-linecap="round" stroke-width="2"/>
<path d="m73.183 171.78c-0.0019-0.33911-0.07029-0.68443-0.0056-1.0173 0.03587-0.18469 0.86034-1.695 1.0061-2.0403 0.8854-2.0979 1.6169-4.2044 2.2538-6.3709 0.38444-1.3077 1.0809-2.5276 1.5049-3.8234 0.69894-2.1362 0.93432-4.4279 1.235-6.6196 0.09515-0.69341 0.39505-1.2974 0.24307-2.036-0.15124-0.73504-0.33937-1.5751-0.52133-2.2862-0.09399-0.3673-0.4203-0.64719-0.51429-1.0145-0.22378-0.8745-0.54129-1.983-1.0328-2.792-0.32515-0.53518-0.95495-0.98377-1.2801-1.519-0.1392-0.22911-0.11935-0.53246-0.25855-0.76158-0.15605-0.25684-4.2221-3.8198-4.6005-4.0439-0.23064-0.13666-0.53627-0.10929-0.7644-0.25011-0.42576-0.33676-0.85152-0.67352-1.2773-1.0103-0.2548-0.0834-0.53375-0.11345-0.7644-0.25011-0.69791-0.41351-1.3452-1.1012-2.0431-1.5147-0.23064-0.13665-0.52395-0.13154-0.7644-0.2501-3.0625-1.5101 1.0962 0.39597-1.2773-1.0103-0.23065-0.13666-0.5309-0.11839-0.7644-0.25011-1.5197-0.85728-0.54731-0.48355-1.533-1.2632-0.66705-0.52762-1.376-0.9871-2.0431-1.5147-1.264-0.99977 0.30486 0.0486-1.0244-1.266-0.21733-0.21494-0.54847-0.28949-0.7658-0.50443-1.1332-1.1207-2.6504-4.7795-2.8328-6.3428-0.10811-0.92627-0.07237-1.8668-0.01548-2.7976 0.11795-1.9302 0.36479-5.3691 1.2322-7.1283" clip-path="url(#tree-3-clip)" fill="none" stroke="#6b6b6b" stroke-linecap="round" stroke-width="2"/>
<path d="m80.394 188.02c-1.4292 0.43926-1.8482 1.5235-2.5292 2.5574-0.46405 0.7045-0.2902 0.73731-0.50162 1.2745-0.11195 0.28443-0.39249 0.48137-0.50444 0.7658-0.0621 0.15778 0.05554 0.34751 0.0028 0.50866-0.03728 0.11395-0.1999 0.14821-0.25292 0.25574-0.06114 0.12399-0.12329 2.1545 0.01267 2.289 0.37662 0.37247 1.5198-0.25794 1.7775-0.51852 0.22859-0.23113 1.2065-0.90356 1.266-1.0244 0.5559-1.1274 1.439-2.1467 2.0163-3.3176 0.13414-0.27204-0.13977-0.74529-0.0056-1.0173 0.12756-0.25869 0.25602 0.30379 0.25152-0.51007-5.29e-4 -0.0907 0.03907-1.0027-0.0056-1.0173-0.49011-0.16036-1.0183-0.16392-1.5274-0.24588z" clip-path="url(#tree-3-clip)" fill="none" stroke="#6b6b6b" stroke-linecap="round" stroke-width="2"/>
<path d="m92.204 208.05c-0.33957-0.0829-0.66918-0.25064-1.0187-0.2487-0.53225 3e-3 -3.5032 2.7749-4.051 3.3288-1.5624 1.5798-3.2211 4.9537-3.5212 7.1409-0.36053 2.6275 0.62068-0.98189-0.24025 2.5447-0.21851 0.89506-0.44776 0.11001-0.24729 1.2731 0.07165 0.41568 0.15455 1.1016 0.26278 1.5246 0.11318 0.44229 0.43815 0.81892 0.5157 1.2688 0.0576 0.33418-0.04418 0.68189 0.0056 1.0173 0.21877 1.4731 0.61354 3.4743 1.2984 4.8252 0.27642 0.54528 0.74934 0.97507 1.0258 1.5204 0.93902 1.8523 2.2245 3.126 4.0918 4.0468 1.3337 0.65766 2.8118 1.5747 4.3335 1.7564 2.8033 0.33465 5.9476 0.36202 8.643-0.81086 0.28029-0.12196 0.47989-0.39092 0.76017-0.51288 0.38706-0.16842 1.3664-0.26877 1.7775-0.51851 0.59912-0.364 0.97703-1.0228 1.7747-1.0272" clip-path="url(#tree-3-clip)" fill="none" stroke="#6b6b6b" stroke-linecap="round" stroke-width="2"/>
<path d="m93.51 214.14c-1.2561 0.24855-2.231 0.92391-2.7864 2.0501-0.23975 0.4862-0.77654 0.80327-1.0103 1.2773-0.12896 0.26152-0.11974 0.7572-0.2487 1.0187-0.10605 0.21507-0.3998 0.29641-0.50584 0.51148-0.19286 0.39111-0.35534 1.086-0.50021 1.5288-0.07909 0.24173 0.08331 0.52127 0.0042 0.76299-0.03728 0.11395-0.21564 0.14179-0.25292 0.25574-0.10546 0.3223 0.08606 0.68788 0.0056 1.0173-0.04496 0.18416-0.21537 0.32398-0.25151 0.51007-0.21385 1.1009 0.61989 2.9424 1.5457 3.5522 0.53753 0.35407 1.6039 0.77866 2.2946 1.0046 0.59936 0.19611 2.6656 0.14565 3.3063-0.0183 0.60629-0.15514 1.5088-0.67763 2.029-1.0286 0.40854-0.27564 1.2381-1.2785 1.5189-1.2801" clip-path="url(#tree-3-clip)" fill="none" stroke="#6b6b6b" stroke-linecap="round" stroke-width="2"/>
<path d="m85.717 230.72c1.0139 0.73578 2.0294 1.1718 3.0604 1.5091 0.45947-0.15584 0.47529 0.40938 0.7658 0.50444 0.6116 0.20011 1.4076-0.16434 2.0346-0.0113 1.1976 0.29237 2.3695 0.38466 3.5606-0.0197 0.30463-0.10342 0.71268 0.0978 1.0173-6e-3 0.11353-0.0385 0.13939-0.2172 0.25292-0.25574 0.16055-0.0545 0.3481 0.0517 0.50866-3e-3 0.5249-0.1782 0.99472-0.7593 1.5203-1.0258 0.2846-0.14428 0.72212-0.11103 1.0159-0.25996 0.43574-0.2209 0.84085-0.55378 1.2674-0.77003 0.56078-0.28428 0.078-0.15828 0.25151-0.51007 0.16844-0.34158 0.60479-0.35576 0.76018-0.51288 0.33723-0.34099-0.42529-0.25198 0.25292-0.25574" clip-path="url(#tree-3-clip)" fill="none" stroke="#6b6b6b" stroke-linecap="round" stroke-width="2"/>
<path d="m73.876 205.1c0.0024 0.42388 0.05729 0.85074 7e-3 1.2716-0.0898 0.75222-0.35147 1.5478-0.49599 2.2918-0.19022 0.97928 0.20712 2.0727 0.01691 3.052-0.05112 0.26317-0.19898 0.50122-0.25011 0.76439-0.25363 1.3057 0.27616 2.7636 0.02252 4.0693-0.03615 0.18609-0.22138 0.32291-0.25151 0.51007-0.14605 0.90725-0.11341 1.8849-0.23884 2.799-0.07623 0.55558-0.42257 1.2276-0.4988 1.7831-0.0461 0.33596 0.05953 0.68252 0.0056 1.0173-0.29444 1.829-1.2063 3.5474-1.4964 5.3494-0.04042 0.2511 0.05272 0.51332 0.0042 0.76299-0.17037 0.87708-0.67494 1.7148-1.0032 2.5489-1.0099 2.5658 0.19559-0.54109-0.24729 1.2731-0.28587 1.171-0.9759 2.4935-1.5063 3.5691-0.05302 0.10753-0.21564 0.14179-0.25292 0.25574-0.05273 0.16115 0.05554 0.34751 0.0028 0.50866-0.20255 0.61903-0.73302 1.2294-1.0075 1.7859-0.07499 0.15207 0.12204 0.3881 0.0028 0.50866-0.05962 0.0603-0.19472-0.0589-0.25433 1e-3 -0.13361 0.1351-0.62234 1.1408-0.75595 1.2759-0.05961 0.0603-0.19472-0.0589-0.25433 1e-3 -0.11923 0.12056 0.12204 0.38811 0.0028 0.50866-0.05962 0.0603-0.19472-0.0589-0.25433 1e-3 -0.05982 0.0605-0.18624 0.82785-0.2487 1.0187-0.22111 0.67579-0.85456 1.4197-1.0061 2.0403-0.04021 0.16471 0.06874 0.35244 0.0028 0.50865-0.26576 0.62972-0.84536 1.1219-1.0075 1.7859-0.20508 0.84007-0.50574 1.2871-0.75173 2.0389-0.66583 2.035-1.5251 4.8186-1.7423 6.8768-0.18193 1.7242-0.19536 5.2719 0.29234 6.8655 0.2354 0.76918 1.2844 2.2908 1.2885 3.0449" clip-path="url(#tree-3-clip)" fill="none" stroke="#6b6b6b" stroke-linecap="round" stroke-width="2"/>
<path d="m70.958 229.27c-0.96245 2.809-0.73153 5.6877-0.71513 8.6514 0.0043 0.78067-0.11954 1.768 0.01408 2.5433 0.16115 0.93495 0.38141 1.8337 0.52414 2.7948 0.14677 0.98828-0.21194 1e-3 7e-3 1.2716 0.17981 1.0432 0.827 2.0393 1.0342 3.0463 0.05126 0.24911-0.04703 0.51387 0.0042 0.76299 0.11462 0.55703 0.54452 1.0003 0.77144 1.5218 0.49509 1.1378 0.78131 2.5447 1.5457 3.5522 0.14493 0.19103 0.38697 0.30091 0.51147 0.50585 0.51765 0.85202-0.0028 0.58543 0.5157 1.2688 0.76925 1.0139 1.5939 1.984 2.3059 3.0393 0.51963 0.77016 2.2965 1.3564 2.3002 2.022" clip-path="url(#tree-3-clip)" fill="none" stroke="#6b6b6b" stroke-linecap="round" stroke-width="2"/>
<path d="m65.024 260.08c-0.79508-1.0794-1.0297-2.227-1.037-3.555-0.0019-0.34731-0.12849-1.1591-0.0084-1.526 0.53584-1.6377 2.0837-3.4647 4.0538-2.8202 0.08057 0.0264-0.07463 0.21683 0.0013 0.25433 0.15207 0.075 0.34751-0.0555 0.50866-3e-3 0.2279 0.0746 0.31123 0.37394 0.51148 0.50585 1.3387 0.88183 1.5601 0.81347 2.3016 2.2763 0.21684 0.42775 0.72129 0.63886 1.023 1.0117 1.3326 1.647-0.20772-0.1582 0.25855 0.76159 0.10842 0.21387 0.43439 0.27878 0.51147 0.50584 0.05451 0.16056-0.05169 0.3481 0.0028 0.50866 0.16027 0.47209 0.79604 0.81563 1.0244 1.266 0.32891 0.64882 0.69967 1.3802 1.0286 2.029 0.27044 0.53348 1.0845 0.94274 1.2801 1.519 0.05451 0.16055-0.05169 0.3481 0.0028 0.50865 0.17148 0.50512 1.0354 0.78479 1.2787 1.2646 0.03833 0.0756-0.04601 0.18407 0.0013 0.25434 0.4031 0.59746 1.2554 0.98862 1.7888 1.5161" clip-path="url(#tree-3-clip)" fill="none" stroke="#6b6b6b" stroke-linecap="round" stroke-width="2"/>
<path d="m68.103 264.9c1.4281 0.92313 3.032 1.1426 4.5878 1.755 1.0207 0.40175 2.1819 0.85776 3.0604 1.5091 0.19262 0.14279 0.29641 0.39978 0.51148 0.50583 0.38771 0.19119 0.87081 0.089 1.2731 0.24728 0.99084 0.38999 1.7995 0.75679 2.8033 1.0018 0.2548 0.0834 0.5096 0.16674 0.7644 0.25011 0.08525 0.0843 0.14179 0.21564 0.25574 0.25292 0.40149 0.13136 0.9561-0.0662 1.2731 0.2473 0.06028 0.0596-0.05887 0.19471 0.0013 0.25432 0.12056 0.11922 0.3881-0.12205 0.50866-3e-3 0.06028 0.0596 0.08619 0.25384 0.0013 0.25432-0.11989 0-0.17049-0.16862-0.25574-0.25292" clip-path="url(#tree-3-clip)" fill="none" stroke="#6b6b6b" stroke-linecap="round" stroke-width="2"/>
<path d="m86.14 261.24c-2.1601-2.336-4.569-4.3756-6.3977-7.086-2.6354-3.9061-4.3605-6.6495-4.387-11.421-0.0068-1.2285 0.50778-2.2918 2.022-2.3002 0.17094-1e-3 0.61248-0.0784 0.76299-4e-3 0.21506 0.10604 0.31123 0.37394 0.51148 0.50584 0.40204 0.26483 0.92844 0.27369 1.2745 0.50162 0.47732 0.31441 1.6314 1.1075 2.0431 1.5147 0.13478 0.1333 0.12236 0.37395 0.25715 0.50725 0.06028 0.0596 0.17829-0.0389 0.25433-1e-3 0.72879 0.35936 1.8026 1.7163 2.556 2.2749 0.75216 0.55764 1.2825 1.5225 1.793 2.2791 0.31658 0.46922 1.024 0.76212 1.2787 1.2646 0.13262 0.26161 0.15287 0.58265 0.51288 0.76018 0.07604 0.0375 0.19405-0.061 0.25433-1e-3 0.05626 0.0556 0.67822 1.3379 0.77144 1.5218 0.41455 0.81776 2.643 2.5856 3.3232 3.0337 0.68726 0.4527 1.1029 1.3178 1.7902 1.7704 1.9865 1.3085 4.1766 2.1514 6.3751 3.0168 1.6777 0.66032 3.554 1.5064 5.3494 1.4964" clip-path="url(#tree-3-clip)" fill="none" stroke="#6b6b6b" stroke-linecap="round" stroke-width="2"/>
<path d="m103.42 257.83c-0.99654-0.88902-2.6109-1.6862-3.0688-3.0351-0.0545-0.16055 0.0392-0.34439-3e-3 -0.50866-0.12007-0.46924-0.43815-0.72996-0.26137-1.2702 0.20113-0.6147 0.78819-1.1726 1.2632-1.533 2.1501-1.6312 1.7671-2.3624 4.561-3.0773 1.1961-0.30608 2.3151 0.49119 3.562 0.23462 1.4829-0.30512 5.3701-0.58283 6.8655-0.29234 0.18609 0.0362 0.3259 0.20655 0.51007 0.25151 0.51953 0.12684 1.2418-7e-3 1.7803-0.01" clip-path="url(#tree-3-clip)" fill="none" stroke="#6b6b6b" stroke-linecap="round" stroke-width="2"/>
<path d="m112.08 261.35c-1.9492-0.7417-2.3023-2.4027-2.3129-4.3109-1e-3 -0.25434-0.0974-0.52633-4e-3 -0.76299 0.0878-0.22313 0.38362-0.30518 0.50585-0.51148 0.13665-0.23065 0.0904-0.54904 0.2501-0.7644 0.36794-0.49628 1.2847-0.72946 1.7747-1.0272 0.20493-0.12451 0.30091-0.38697 0.50584-0.51148 1.8844-1.1449 5.0109-1.0451 7.1156-1.0567 0.93095-5e-3 2.1605 0.21121 3.052-0.0169 0.25972-0.0665 0.57096-0.44707 0.76158-0.25855 0.0603 0.0596 1e-3 0.16955 1e-3 0.25433" clip-path="url(#tree-3-clip)" fill="none" stroke="#6b6b6b" stroke-linecap="round" stroke-width="2"/>
<path d="m128.89 265.07c1.5329-2.5824 3.4137-4.8324 5.3015-7.1508 0.53531-0.6574 0.95108-1.4098 1.5147-2.0431 0.95653-1.0747 2.0548-2.0157 3.0351-3.0689 1.0847-1.3713 0.62856-0.89131 1.2632-1.533" clip-path="url(#tree-3-clip)" fill="none" stroke="#6b6b6b" stroke-linecap="round" stroke-width="2"/>
<path d="m119.72 263.34c0.6723-1.8598 2.2169-3.0088 3.5367-4.3433 0.54961-0.55573 0.9665-1.233 1.5161-1.7888 1.0961-1.1083 2.4436-1.9593 3.5437-3.0717" clip-path="url(#tree-3-clip)" fill="none" stroke="#6b6b6b" stroke-linecap="round" stroke-width="2"/>
<path d="m81.999 248.29c0.31903 1.2943 1.6141 1.6226 2.303 2.5306 0.55309 0.72902 1.1352 1.6286 1.793 2.2791 0.26957 0.2666 0.71557 0.27723 1.0201 0.50303 0.73641 0.54596 0.33178 0.36563 0.76862 1.0131 0.39276 0.58214 0.14467-0.10986 0.7658 0.50444 1.0712 1.0594 1.4145 2.6218 2.3101 3.8023 0.14493 0.19103 0.40305 0.29196 0.51147 0.50584 0.07853 0.15491 0.35472 1.4544 0.51852 1.7775 0.48182 0.95046 1.0633 1.7029 1.2871 2.7906 0.28355 1.3781 0.52328 2.6382 0.53118 4.0665" clip-path="url(#tree-3-clip)" fill="none" stroke="#6b6b6b" stroke-linecap="round" stroke-width="2"/>
<path d="m99.173 272.36c-0.93668-3.2154 1.8592-6.404 4.5343-7.9096 0.19035-0.10713 1.6157-0.66812 2.0304-0.77425 0.55216-0.14129 0.511 0.42019 0.50866-3e-3" clip-path="url(#tree-3-clip)" fill="none" stroke="#6b6b6b" stroke-linecap="round" stroke-width="2"/>
<path d="m108.6 274.85c1.0413-2.3212 2.6232-3.6976 4.5484-5.3663 0.0448-0.0388 2.0445-1.674 2.2791-1.793 0.65889-0.33404 1.7764-0.72446 1.7817 0.24447" clip-path="url(#tree-3-clip)" fill="none" stroke="#6b6b6b" stroke-linecap="round" stroke-width="2"/>
<path d="m69.442 185.28c0.25198-1.2137 0.51138-2.371 0.74328-3.5648 0.37039-1.9068-0.16563-4.2698-0.54245-6.1011-0.43667-2.1222-0.60478-4.2832-1.3068-6.3512-0.85483-2.518-2.5628-4.9596-4.1087-7.0987-2.4082-3.3323-3.8287-4.981-6.9091-7.5919-0.27438-0.23256-0.46115-0.56983-0.76721-0.75877-0.38848-0.23982-0.87683-0.27731-1.2745-0.50162-0.20885-0.11781-0.29641-0.3998-0.51148-0.50584-0.3135-0.15459-0.69668-0.11279-1.0187-0.2487-1.7858-0.75366 0.09457-0.19746-1.2773-1.0103-0.58188-0.34476-1.4749-0.38023-2.0389-0.75173-0.1416-0.0933-0.0019-0.3391-0.0028-0.50866" clip-path="url(#tree-3-clip)" fill="none" stroke="#6b6b6b" stroke-linecap="round" stroke-width="2"/>
<path d="m57.47 136.01c1.9129-0.62974 6.7302 0.58561 10.196 4.013 5.2133 5.1559 7.1827 11.058 7.2226 18.272 0.0024 0.44883 0.16026 1.3206 0.0098 1.7803-0.53363 1.6309-1.2599 3.4442-2.5208 4.0834-0.21063 0.10678-0.7762 4e-3 -1.0173 6e-3 -0.1552 7.9e-4 -0.91768 0.10418-1.0173 6e-3 -0.16766-0.16582-0.13184-0.8892-0.25996-1.0159-0.06028-0.0596-0.19405 0.061-0.25433 1e-3 -0.13307-0.13161-0.0044-0.80228-0.0056-1.0173-3e-3 -0.53436-0.25841-0.73589-0.26137-1.2702-0.0011-0.17157-0.44918-1.8235-0.51992-2.0318-0.09827-0.28944-0.41462-0.47073-0.51288-0.76017-0.43266-1.2744-1.2196-3.2754-2.0586-4.3124-0.59962-0.74108-1.4463-1.2823-2.0459-2.0234-1.6294-2.0138-2.8693-3.0311-5.1105-4.2955-0.53246-0.30036-0.9833-0.7385-1.5316-1.0089-0.84833-0.41831-1.8998-0.49516-2.8019-0.7475-1.1277-0.31545-1.8181-0.49861-2.2918-0.49599" clip-path="url(#tree-3-clip)" fill="none" stroke="#6b6b6b" stroke-linecap="round" stroke-width="2"/>
<path d="m56.725 139.32c0.61048 1.6737 1.7244 0.22572 2.5461 0.49458 0.49087 0.16061 1.0407 0.84826 1.5316 1.0089 0.16115 0.0527 0.34394-0.043 0.50866-3e-3 0.82976 0.20256 1.6501 0.78007 2.296 1.259 0.4463 0.33088 0.76012 0.24801 1.2745 0.50162 0.68643 0.33848 1.172 1.3122 1.7902 1.7705 0.24555 0.18205 0.54847 0.2895 0.7658 0.50444 0.26957 0.2666 0.30224 0.70021 0.51429 1.0145 0.27974 0.41463 0.86267 0.78975 1.0244 1.266 0.05451 0.16055-0.05169 0.3481 0.0028 0.50866 0.09827 0.28944 0.41462 0.47073 0.51288 0.76017 0.08176 0.24084-0.07754 0.52216 0.0042 0.76299 0.11655 0.34331 0.34517 0.68089 0.51429 1.0145 0.21764 0.42932 0.0647 1.1338 0.26278 1.5246 0.45921 0.90584 0.51947 1.9502 0.52555 3.0491 0.0033 0.59645-0.06061-0.11956 0.25715 0.50725 0.19095 0.37667-0.27991 1.4937 0.0098 1.7803 0.08525 0.0843 0.25359-0.13585 0.25292-0.25574" clip-path="url(#tree-3-clip)" fill="none" stroke="#6b6b6b" stroke-linecap="round" stroke-width="2"/>
<path d="m55.831 161.45c0.3391-2e-3 0.69502-0.11109 1.0173-6e-3 0.2279 0.0746 0.31885 0.36304 0.51147 0.50585 1.9945 1.4787-1.5997-1.6135 1.2759 0.75595 0.63139 0.52027 1.206 1.1927 1.7902 1.7704 0.56395 0.55774 1.2886 0.89799 1.7888 1.5161 0.34807 0.43018 1.5798 2.3618 1.7958 2.7878 0.15805 0.31178 0.12049 0.6954 0.25996 1.0159 0.58641 1.3476 1.6391 2.6248 2.0572 4.058 0.07122 0.24416-0.04703 0.51387 0.0042 0.76299 0.09299 0.45194 0.38719 0.8903 0.5157 1.2688 0.10902 0.32111-0.07843 0.68879 0.0056 1.0173 0.04699 0.18365 0.21015 0.3236 0.25715 0.50725 0.07233 0.28266 0.17751 4.3715 0.02675 4.8323-0.16598 0.50729-0.6549 0.66219-0.75877 0.76721-0.05961 0.0603 0.06102 0.19405 0.0013 0.25433-0.61526 0.62211-2.7382-2.5449-3.0688-3.0351-0.68532-1.0158-0.76915-2.0204-1.2885-3.0449-0.17475-0.34472-0.59387-0.66838-0.76862-1.0131-0.28943-0.57094-0.50188-1.2416-0.77284-1.7761-0.14458-0.2852-0.66512-0.45806-0.76721-0.75877-0.05451-0.16056 0.05169-0.3481-0.0028-0.50866-0.07709-0.22706-0.40305-0.29197-0.51148-0.50584-0.03833-0.0756 0.05887-0.19472-0.0013-0.25433-0.06028-0.0596-0.19405 0.061-0.25433 1e-3 -0.10139-0.10027-0.59662-1.3489-0.77144-1.5218-0.06028-0.0596-0.19405 0.061-0.25433 1e-3 -0.04712-0.0466-0.21143-0.71498-0.25855-0.76158-0.12787-0.12647-0.3822-0.12506-0.51007-0.25152-0.08524-0.0843-0.1733-0.67727-0.25855-0.76158-0.08525-0.0843-0.67915-0.1658-0.7644-0.25011-0.12906-0.12763-0.2585-0.75132-0.25574-0.25292" clip-path="url(#tree-3-clip)" fill="none" stroke="#6b6b6b" stroke-linecap="round" stroke-width="2"/>
<path d="m99.664 131.2c-3.2267-1.8596-6.2754 0.16946-9.146 1.831-1.6202 0.93776-2.6267 2.4196-3.7938 3.8361-1.0223 1.2406-1.4345 2.8709-2.0107 4.3349-0.63467 1.6125-1.8083 4.7342-0.98213 6.3639 0.115 0.22685-0.07754 0.52215 0.0042 0.76299 0.07709 0.22706 0.40305 0.29197 0.51148 0.50584 0.28157 0.55544 0.34554 0.93129 1.0244 1.266 1.5907 0.78438 7.2888-2.0682 8.6317-2.8455 0.52911-0.30625 0.97507-0.74934 1.5203-1.0258 0.51482-0.26098 3.9177-1.9152 4.058-2.0572 0.05961-0.0603-0.06102-0.19405-0.0013-0.25433 0.11923-0.12055 0.5096 0.16674 0.50866-3e-3 -7.94e-4 -0.1199-0.17049-0.16862-0.25574-0.25293" clip-path="url(#tree-3-clip)" fill="none" stroke="#6b6b6b" stroke-linecap="round" stroke-width="2"/>
<path d="m37.492 248.53c1.6087-2.4237 4.578-2.2276 7.1114-1.8197 0.91747 0.14769 1.8788 0.11258 2.799 0.23884 2.0056 0.2752 5.8144 2.7658 6.8922 4.5399 0.5311 0.87416 0.90214 2.0942 1.2885 3.0449 0.49768 1.2245 0.37972 2.5265 0.52978 3.8121 0.28293 2.4241 0.32778 4.7058 0.03942 7.1212-0.08287 0.69416-0.41453 1.3433-0.4974 2.0374-0.07035 0.58928 0.1506 1.2038 0.0099 1.7803-0.02843 0.11647-0.33817 0.17143-0.25292 0.25572 0.08525 0.0843 0.16862-0.17047 0.25292-0.25572" clip-path="url(#tree-3-clip)" fill="none" stroke="#6b6b6b" stroke-linecap="round" stroke-width="2"/>
<path d="m30.643 251.88c1.4221-0.60186 2.8383-0.99141 4.3166-1.2956 0.49151-0.10114 1.488 0.20941 1.7817 0.24447 0.33672 0.0402 0.71317-0.1556 1.0173-6e-3 0.10753 0.053 0.14179 0.21563 0.25574 0.25292 0.87379 0.2859 1.2515-0.16308 2.0403 1.0061 0.11451 0.16971 0.39838 0.59045 0.51288 0.76017 0.14225 0.21083 0.0028 0.50866 0.0042 0.76299 0.01281 2.3135-0.20271 5.4371-1.4852 7.384-0.38722 0.58786-0.9457 1.356-1.5161 1.7888-0.15102 0.11457-0.37395 0.12235-0.50725 0.25714-0.1333 0.13479-0.11821 0.37528-0.25151 0.51007-0.57324 0.57962-1.4726 0.72176-2.0276 1.2829" clip-path="url(#tree-3-clip)" fill="none" stroke="#6b6b6b" stroke-linecap="round" stroke-width="2"/>
<path d="m23.793 254.97c0.68009 0.33536 1.4311 0.55446 2.0403 1.0061 0.43607 0.3233 0.67453 0.85093 1.0244 1.266 0.50369 0.59767 1.1095 1.1167 1.5358 1.7719 0.58244 0.89508 0.90107 2.3046 1.29 3.2992 0.72419 1.8522 1.2172 3.3693 1.5555 5.3325 0.09075 0.52654 0.88726 3.0472-0.23743 3.0534" clip-path="url(#tree-3-clip)" fill="none" stroke="#6b6b6b" stroke-linecap="round" stroke-width="2"/>
<path d="m17.962 258.31c3.8131 2.0288 7.4813 6.3788 8.452 10.635 0.09611 0.42148 0.20538 0.84161 0.26137 1.2703 0.04906 0.37558-0.25943 2.0199 0.01267 2.289 0.12056 0.11922 0.33911-3e-3 0.50866-3e-3" clip-path="url(#tree-3-clip)" fill="none" stroke="#6b6b6b" stroke-linecap="round" stroke-width="2"/>
<path d="m42.167 266.06c0.25246-0.34052 0.4138-0.77327 0.75736-1.0216 0.70074-0.5064 1.6907-0.36337 2.5405-0.52273 2.0093-0.37684 3.5754-0.40806 5.0936 1.2435 1.0578 1.1507 3.0783 4.737 3.0872 6.3413 0.0016 0.26811-0.25707-0.49347-0.25855-0.76157" clip-path="url(#tree-3-clip)" fill="none" stroke="#6b6b6b" stroke-linecap="round" stroke-width="2"/>
<path d="m44.127 252.57c0.33958 0.0829 0.93583 0.58827 1.0187 0.24869 0.0829-0.33957-1.3195-0.42687-1.0187-0.24869 0.71834 0.42561 1.5457 0.63538 2.2946 1.0046 0.87641 0.43216 2.2979 1.6821 2.8117 2.5278 0.3642 0.59945 0.59018 1.1987 1.0272 1.7747 0.84918 1.1193 1.8366 2.1574 2.3087 3.5479 0.24414 0.71914 0.42642 1.5958 0.77566 2.2848 0.07384 0.14565 0.0093 1.6753 0.0056 1.0173" clip-path="url(#tree-3-clip)" fill="none" stroke="#6b6b6b" stroke-linecap="round" stroke-width="2"/>
<path d="m57.553 242.83c-0.34004-0.16767-0.64795-0.43073-1.0201-0.50303-0.41764-0.0811-0.9498 1.5498-1.0075 1.7859-0.20363 0.8341-0.2932 1.7212-0.49458 2.5461-0.15754 0.6453 0.1066 0.41659 0.25996 1.0159 0.08407 0.32852-0.10338 0.69621 0.0056 1.0173 0.15074 0.44402 0.82386 1.8012 1.2829 2.0276 1.5741 0.77619 3.3174-4.0213 2.7695-5.1021-0.55087-1.0867-0.83476-1.458-1.7958-2.7878z" clip-path="url(#tree-3-clip)" fill="none" stroke="#6b6b6b" stroke-linecap="round" stroke-width="2"/>
<path d="m96.387 136.55c-0.42435-0.0824-0.84078-0.24969-1.2731-0.24729-0.37913 2e-3 -0.6472 0.4203-1.0145 0.51429-0.49775 0.12737-0.77249 0.134-1.2702 0.26137-1.1963 0.30613-3.9324 2.6359-4.5582 3.586-0.31489 0.47806-0.18673 0.79642-0.50162 1.2745-0.2343 0.3557-0.76565 1.5083-0.4974 2.0374 0.28428 0.56078 0.15829 0.078 0.51007 0.25152 0.77774 0.3835-0.46404 0.2042 0.7658 0.50443 0.76247 0.18614 4.5084-2.2568 5.0711-2.8258 0.30468-0.30807 2.2178-1.7926 2.5334-1.7944 0.08478-5.3e-4 0.0011 0.16956 0.0013 0.25433" clip-path="url(#tree-3-clip)" fill="none" stroke="#6b6b6b" stroke-linecap="round" stroke-width="2"/>
<path d="m79.414 148.86c-0.98056-1.9907-0.86191-4.2089-1.0525-6.3526-0.04567-0.51365-0.21711-1.0109-0.26278-1.5246-0.13526-1.5214 0.30913-2.8555 0.48473-4.3264 0.3262-2.7324 0.65314-3.1436 2.0037-5.6065 0.40512-0.73882 0.7545-1.6156 1.259-2.296 0.35205-0.47485 0.89784-0.815 1.2646-1.2787 0.18963-0.23974 0.28949-0.54847 0.50444-0.76581 1.0126-1.0239 2.3914-1.2731 3.5494-2.0543 0.7175-0.48409-0.48292-0.16059 1.0131-0.76862 0.15708-0.0639 0.35158 0.061 0.50866-3e-3 1.4478-0.58844 0.15854-0.39357 1.2674-0.77003 3.71-1.2595 7.7751-1.0604 11.694-1.0821 1.3925-8e-3 2.9327-0.17069 4.3236-0.0239 0.67972 0.0717 1.3651 0.11273 2.036 0.24307 0.18609 0.0362 0.32291 0.22138 0.51007 0.25151 0.3348 0.0539 0.68252-0.0595 1.0173-6e-3 0.26468 0.0426 0.57588 0.44072 0.7644 0.2501 0.11923-0.12055-2e-3 -0.3391-3e-3 -0.50866" clip-path="url(#tree-3-clip)" fill="none" stroke="#6b6b6b" stroke-linecap="round" stroke-width="2"/>
<path d="m94.785 122.83c2.2582-0.51681 3.8652-2.1903 5.0641-4.0974 3.8708-6.1577 2.6367-13.639 1.159-20.353-0.61427-2.7911-1.6771-5.2518-3.3485-7.6116-0.63451-0.89585-1.4432-1.5973-2.3016-2.2763-0.39296-0.31082-1.0204-0.54482-1.0201-0.50303 5.3e-4 0.08478 0.1783-0.0389 0.25433-0.0013 0.10753 0.05302 0.17049 0.16861 0.25574 0.25292" clip-path="url(#tree-3-clip)" fill="none" stroke="#6b6b6b" stroke-linecap="round" stroke-width="2"/>
<path d="m105.45 74.192c3.657 3.5871 7.4524 6.714 13.006 6.2864 1.293-0.09956 2.5487-0.4855 3.8107-0.78411 0.94064-0.22256 1.892-0.42937 2.7934-0.77847 1.8454-0.71474 3.9649-1.8958 5.5784-3.0829 1.1465-0.84353 1.2934-0.93769 2.0234-2.0459 0.10428-0.15831 0.11822-0.37528 0.25152-0.51007 0.11923-0.12056 2e-3 0.33911 3e-3 0.50866" clip-path="url(#tree-3-clip)" fill="none" stroke="#6b6b6b" stroke-linecap="round" stroke-width="2"/>
<path d="m119.94 118.62c-1.2085-0.73101-1.3779-1.9761-2.0515-3.0407-1.0195-1.6113-2.4807-2.9978-3.586-4.5582-1.342-1.8947-0.37139-0.5562-1.03-2.2833-0.27018-0.70851-0.72603-1.3337-1.0286-2.029-0.47205-1.0848-0.77399-2.4015-1.037-3.555-0.28062-1.2306-0.11458-2.3385-0.27404-3.5592-0.13357-1.0225-0.39198-2.0266-0.52555-3.0491-0.24949-1.9099 0.29448-3.9532-0.0324-5.8496-0.21881-1.2695-0.26977-2.5485-0.52978-3.8121-0.0564-0.2743 0.11892-1.0232-7e-3 -1.2717-0.0383-0.07561-0.19406 0.06102-0.25433 0.0013-0.12056-0.11923 0.0738-0.35743-3e-3 -0.50866-0.17143-0.33817-0.31743-0.69048-0.51429-1.0145-0.44693-0.73562-1.3083-1.3086-1.7916-2.0248-0.0474-0.07028 0.0589-0.19472-1e-3 -0.25433-0.0603-0.05961-0.25386 0.08619-0.25433 0.0013-5.3e-4 -0.11989 0.16861-0.17049 0.25292-0.25574" clip-path="url(#tree-3-clip)" fill="none" stroke="#6b6b6b" stroke-linecap="round" stroke-width="2"/>
<path d="m103.27 93.025c1.2592 3.4421 2.5783 6.8391 3.364 10.409 0.14691 0.66752 0.0962 1.3711 0.26559 2.0332 0.50156 1.9601 1.6389 3.7086 2.3199 5.5826 0.13718 0.37749 0.81042 3.0779 1.2914 3.5536" clip-path="url(#tree-3-clip)" fill="none" stroke="#6b6b6b" stroke-linecap="round" stroke-width="2"/>
<path d="m111.6 82.296c1.4161 1.4169 2.4065 3.0281 4.3447 3.791 0.99785 0.39275 2.0654 0.59346 3.0576 1.0004 0.52616 0.21583 1.001 0.54626 1.5302 0.75454 0.32838 0.12925 2.8011 0.61177 2.7976-0.01548" clip-path="url(#tree-3-clip)" fill="none" stroke="#6b6b6b" stroke-linecap="round" stroke-width="2"/>
<path d="m115.55 60.656c6.0857 3.7108 8.8491 2.3442 14.488-1.6062 0.5973-0.41843 1.2063-0.82278 1.7733-1.2815 0.65243-0.5279 1.2368-1.1425 1.7704-1.7902 0.12055-0.1463 0.11821-0.37528 0.25152-0.51007 0.0596-0.06028 0.19471 0.05887 0.25432-0.0013 0.18606-0.18812 0.11777-0.37484-0.25432 0.0013" clip-path="url(#tree-3-clip)" fill="none" stroke="#6b6b6b" stroke-linecap="round" stroke-width="2"/>
<path d="m98.74 56.171c3.5192-1.4321 7.3328-2.5259 9.1221-6.1546 0.27491-0.55751 0.44047-1.082-8e-3 -1.526" clip-path="url(#tree-3-clip)" fill="none" stroke="#6b6b6b" stroke-linecap="round" stroke-width="2"/>
<path d="m118.05 52.757c1.3749 0.63488 2.0318-0.0532 3.3049-0.27263 0.66837-0.1152 1.3621 0.07659 2.0346-0.01127 1.4722-0.19232 2.8891-0.60396 4.318-1.0413 1.4133-0.43252 3.165-0.13114 4.3166-1.2956 0.13331-0.13479 0.11822-0.37528 0.25152-0.51007 0.1333-0.13478 0.37395-0.12236 0.50725-0.25714 0.61433-0.62117 0.1539-0.37216 1.0117-1.023 0.77345 0.62332 0.43363-0.69421 0.50443-0.7658 0.0596-0.06028 0.2548 0.08337 0.25433-0.0013-5.2e-4 -0.08478-0.16955 0.0011-0.25433 0.0013" clip-path="url(#tree-3-clip)" fill="none" stroke="#6b6b6b" stroke-linecap="round" stroke-width="2"/>
<path d="m128.31 67.961c-0.5061 0.73503-1.8306 2.5858-2.7807 3.0674-0.15123 0.07667-0.38943-0.11774-0.50866 0.0028-0.0596 0.06028 0.061 0.19405 1e-3 0.25433-0.11922 0.12056-0.35742-0.07385-0.50866 0.0028-0.10693 0.05421-0.13939 0.21719-0.25292 0.25574-0.58153 0.19743-1.2101 0.07109-1.7789 0.26418-0.4736 0.16078-0.6318 0.32029-1.0145 0.51429-0.24342 0.1234-0.77353-0.07713-1.0173 0.0056-0.11353 0.03854-0.14599 0.20153-0.25293 0.25574-0.42148 0.21367-2.287 0.14014-2.7976 0.01548-0.45948 0.15584-0.47529-0.40938-0.76581-0.50444-0.24172-0.07909-0.53488 0.1167-0.76299 0.0042-0.37134-0.18311-2.3007-1.2636-2.5517-1.5119-0.0603-0.05962 0.0589-0.19472-1e-3 -0.25433-0.39368-0.38934-1.1379-0.61953-1.5316-1.0089-0.13479-0.1333-0.12236-0.37395-0.25715-0.50725-0.31162-0.30819-0.96425-0.44776-1.2759-0.75595-0.39368-0.38934-0.63209-1.131-1.0258-1.5203-0.13478-0.1333-0.35175-0.14724-0.51007-0.25151-0.41143-0.27101-0.66183-0.90748-1.0244-1.266-0.58551-0.57906-1.1452-1.2603-1.7902-1.7705-0.23974-0.18963-0.54846-0.2895-0.7658-0.50444-0.13479-0.1333-0.12236-0.37395-0.25714-0.50725-0.80592-0.79704-2.2923-1.6128-3.3176-2.0163-0.24947-0.09819-0.50123-0.19898-0.7644-0.25011-0.16645-0.03233-0.36707 0.09609-0.50866 0.0028-0.87997-0.57963 0.19381-0.50975-0.51148-0.50584" clip-path="url(#tree-3-clip)" fill="none" stroke="#6b6b6b" stroke-linecap="round" stroke-width="2"/>
<path d="m94.928 102.74c0.66555 1.6776 1.6195 3.5851 1.0469 5.3353-0.11734 0.3586 0.17328 0.93451 7e-3 1.2716-0.3835 0.77774-0.2042-0.46404-0.50444 0.7658-0.04021 0.16472 0.05554 0.34751 0.0028 0.50866-0.19622 0.5997-0.92523 1.0199-1.2632 1.533-0.42507 0.64532-0.50338 0.50898-1.0117 1.023-0.6143 0.62113 0.0777 0.37305-0.50444 0.7658-1.0494 0.70805-2.0297 1.5399-3.0393 2.3059-1.0644 0.80754-2.3725 1.2027-3.5508 1.8-1.4679 0.74413-3.9375 1.8211-5.584 2.0656-0.33543 0.0498-0.68517-0.0627-1.0173 6e-3 -0.52518 0.10806-1.0004 0.39789-1.5232 0.5171-0.94749 0.21607-3.6622 0.12196-4.5779 0.0254-1.0144-0.10703-5.195-1.9276-6.3723-2.5081-1.0205-0.50322-1.8244-1.4358-2.8089-2.0192-0.74152-0.43935-1.6032-0.74533-2.296-1.259-2.7171-2.0144-5.2825-4.4449-7.415-7.0804-0.68497-0.84656-0.99743-1.8937-1.5415-2.7892-0.1245-0.20493-0.38697-0.30091-0.51147-0.50584-0.56144-0.9241-0.42625-1.2693-0.77003-1.2674" clip-path="url(#tree-3-clip)" fill="none" stroke="#6b6b6b" stroke-linecap="round" stroke-width="2"/>
<path d="m57.12 118.71c1.8895 1.6907 3.3066 4.0345 5.3719 5.5657 0.4463 0.33088 0.76012 0.248 1.2745 0.50162 0.55884 0.27556 1.129 0.87986 1.7859 1.0075 0.83612 0.16242 1.7381 0.23022 2.5461 0.49459 0.25374 0.083 0.51207 0.42141 0.7658 0.50443 0.62212 0.20356 1.2233 0.22276 1.7831 0.49881 0.46062 0.22713 1.1874-0.0918 1.5246-0.26278 0.32656-0.16555 0.26145 0.17017 0.51007 0.25152 0.2447 0.0801 0.77255-0.12633 1.0173-6e-3 0.10753 0.053 0.1482 0.1999 0.25574 0.25292 0.46219 0.22791 0.83817-0.25898 1.2702-0.26137 0.67821-4e-3 -0.08431 0.0853 0.25292-0.25573 0.16862-0.1705 0.8487 0.16486 1.0173-6e-3 0.0024-2e-3 0.30886-0.51039 0.25151-0.51007-0.08478 5.3e-4 0.0011 0.16955 0.0013 0.25433" clip-path="url(#tree-3-clip)" fill="none" stroke="#6b6b6b" stroke-linecap="round" stroke-width="2"/>
<path d="m89.404 115.74c-1.581 1.3601-2.3201 0.95753-4.0665 0.53119-0.64717-0.158-1.3822-0.11606-2.036-0.24307-1.9824-0.38508-5.5833-2.7341-6.8908-4.2856-0.92956-1.103-1.8567-2.5434-2.5644-3.8009-0.67761-1.204-1.578-2.7628-2.0572-4.058-0.14998-0.40544-0.1224-0.86091-0.26137-1.2702-0.57685-1.6991-1.5775-3.3339-2.0628-5.0753-0.39508-1.4177-0.6444-2.8939-1.0413-4.318-1.0133-3.6359-2.24-7.3909-2.6052-11.176-0.23633-2.4492-0.5187-4.9286-0.80382-7.3713-0.12925-1.1073-0.65204-2.1947-0.78129-3.3021-0.26811-2.2971 0.31174-0.30362-0.267-2.2876-0.99504-3.4111-1.4406-6.2751-3.6113-9.1362-0.22916-0.30204-0.24472-0.7479-0.51429-1.0145-0.13479-0.1333-0.37528-0.11821-0.51007-0.25152-0.13478-0.1333-0.12236-0.37395-0.25715-0.50725-0.84368-0.83439-3.8282-2.3686-3.829-2.5222-5.29e-4 -0.08478 0.16955-0.0011 0.25433-0.0013" clip-path="url(#tree-3-clip)" fill="none" stroke="#6b6b6b" stroke-linecap="round" stroke-width="2"/>
<path d="m53.792 68.882c0.34004 0.16767 0.85246 0.84307 1.0201 0.50303s-1.3247-0.72883-1.0201-0.50303c0.73664 0.54614 1.8828 0.69539 2.2974 1.5133 0.40943 0.80765 1.2328 1.9534 1.7958 2.7878 0.67853 1.0057 0.94582 2.2639 1.5443 3.2978 0.12012 0.20753 0.38697 0.30091 0.51148 0.50584 0.78358 1.2897 0.87113 2.9762 1.5499 4.3152 0.13821 0.27264 0.41462 0.47073 0.51288 0.76018 0.08176 0.24083-0.03898 0.51235 0.0042 0.76299 0.19615 1.138 0.8663 2.1606 1.0356 3.3007 0.22531 1.5172 0.56126 3.0448 0.78833 4.5737 0.12328 0.83015-0.10921 1.7131 0.01408 2.5433 0.08806 0.59297 0.14336 1.1917 0.26418 1.7789 0.03821 0.18568 0.23259 0.31928 0.25714 0.50725 0.3303 2.5286 0.13695 6.4616-0.45939 8.9044-0.30024 1.2298-0.12093-0.0119-0.50444 0.7658-0.07622 0.15457-0.14412 0.65723-0.2501 0.7644-0.04641 0.0469-1.6253 0.95147-1.7747 1.0272-0.75234 0.38139-1.4643-0.30986-2.0375-0.49739-0.35515-0.11621-1.2513-0.2258-1.5288-0.50022-0.08483-0.0839-0.43838-0.86475-0.51429-1.0145-0.15429-0.30435-0.61293-0.45442-0.76721-0.75877-0.03833-0.0756 0.05887-0.19471-0.0013-0.25433-0.06028-0.0596-0.19405 0.061-0.25433 1e-3 -0.20902-0.20671-0.54935-1.1926-0.77144-1.5218-0.1886-0.27953-0.61532-0.45914-0.76721-0.75877-0.03833-0.0756 0.05887-0.19471-0.0013-0.25433-0.06028-0.0596-0.19405 0.061-0.25433 1e-3 -0.06028-0.0596 0.05887-0.19472-0.0013-0.25433-0.06028-0.0596-0.19405 0.061-0.25433 1e-3 -0.27329-0.27028 0.35873-0.51066-0.25715-0.50725" clip-path="url(#tree-3-clip)" fill="none" stroke="#6b6b6b" stroke-linecap="round" stroke-width="2"/>
<path d="m67.736 106.7c-1.5587-0.22245-1.4119 0.69417-1.7705 1.7902-0.03728 0.11395-0.21564 0.14179-0.25292 0.25574-0.38156 1.1662 0.18879 4.7396 1.0483 5.5896 0.42881 0.4241 0.79854 0.3459 1.2745 0.50162 0.63074 0.20638 1.6367 0.9462 2.0332-0.26559 0.05273-0.16115-0.05554-0.34751-0.0028-0.50866 0.03728-0.11395 0.21564-0.14178 0.25292-0.25573 0.45663-1.3956-0.0086-1.5604-0.01548-2.7976-0.0037-0.67105-0.30882-1.41-0.51992-2.0318-0.38244-1.1265-1.0704-1.4728-2.0473-2.2777z" clip-path="url(#tree-3-clip)" fill="none" stroke="#6b6b6b" stroke-linecap="round" stroke-width="2"/>
<path d="m89.35 105.82c-1.6946-0.33559-3.1205 1.0646-4.828 0.78974-5.8465-0.94119-11.253-5.5316-10.494-11.896 0.1165-0.97584 0.43476-1.3288 0.75032-2.2932 1.3707-4.1893 4.2841-7.4009 7.3178-10.468 0.5504-0.55653 2.762-2.8029 3.2894-3.0703 0.07562-0.03833 0.19472 0.05887 0.25433-0.0013 0.23693-0.23957-0.01741-0.23816-0.25433 0.0013" clip-path="url(#tree-3-clip)" fill="none" stroke="#6b6b6b" stroke-linecap="round" stroke-width="2"/>
<path d="m87.331 62.847c-0.91221 1.026-1.4308 2.13-2.0163 3.3175-0.91371 1.853-0.07191-0.1473-1.0103 1.2773-0.20856 0.31662-0.26783 0.72277-0.50303 1.0201-0.1176 0.14868-0.39792 0.10228-0.50725 0.25715-0.32799 0.4646-0.46465 1.0409-0.75454 1.5302-0.65939 1.1129-1.4671 2.303-2.2707 3.319-1.2731 1.6096-2.5147 3.2433-3.7882 4.8534-0.83216 1.0521-2.3544 2.5403-2.7765 3.8304-0.14923 0.45609-0.13275 0.80385-0.24729 1.2731-0.13481 0.55222-0.62114 0.72366-0.75595 1.2759-0.20654 0.84605-0.47742 1.7178-0.74891 2.5475-0.27428 0.8383-0.63617 1.5473-1.0046 2.2946-0.11248 0.22811 0.08331 0.52127 0.0042 0.76299-0.30906 0.94457-0.25604-0.30861-0.25151 0.51007 0.0071 1.2888 0.07415-0.30373-0.2487 1.0187-0.15333 0.6281-0.21508 1.2077-0.49881 1.7831-0.10553 0.21402-0.05593 3.265 0.01971 3.5606 0.14936 0.58368 0.13293 0.50794 0.51148 0.50585" clip-path="url(#tree-3-clip)" fill="none" stroke="#6b6b6b" stroke-linecap="round" stroke-width="2"/>
<path d="m46.962 75.533c2.864-0.77007 4.3471 1.0692 6.1208 3.0182 3.2618 3.5842 2.1643 8.4855-0.69683 11.958-1.4641 1.7768-3.497 2.5534-5.3198 3.8445-1.8292 1.2956-3.7427 2.4548-5.8313 3.3387-1.3275 0.56176-2.7668 0.8925-4.0608 1.5485-0.27264 0.13821-0.46404 0.4371-0.76018 0.51288-0.11615 0.02972-0.17049-0.16861-0.25574-0.25292" clip-path="url(#tree-3-clip)" fill="none" stroke="#6b6b6b" stroke-linecap="round" stroke-width="2"/>
<path d="m59.49 87.417c-0.37991 0.97822-0.0401 1.8816-0.49318 2.8004-0.13518 0.27415-0.39869 0.479-0.50444 0.7658-0.14954 0.40559-0.07391 0.87706-0.24729 1.2731-0.2925 0.66806-0.86062 1.1783-1.2618 1.7873-1.4572 2.2123-1.887 3.1452-4.0439 4.6005-0.29817 0.20117-0.47915 0.54097-0.75877 0.76721-1.2635 1.0223-2.7341 2.0498-4.3123 2.0586" clip-path="url(#tree-3-clip)" fill="none" stroke="#6b6b6b" stroke-linecap="round" stroke-width="2"/>
<path d="m70.113 76.676c0.33103-2.8236-0.63817-5.231-1.3153-7.8772-0.12784-0.49959-0.097-1.0363-0.26278-1.5246-0.12188-0.35901-0.4203-0.6472-0.51429-1.0145-0.26505-1.0358-0.26662-2.0353-0.77988-3.0477-0.36563-0.72125-0.42455-1.5921-0.77566-2.2847-0.05421-0.10694-0.21719-0.13939-0.25574-0.25292-0.07757-0.22848 0.07334-0.53452-0.0042-0.76299-0.62795-1.8497-0.66029-3.3575 0.4805-5.0894 0.22456-0.34091 0.47156-0.98831 0.75595-1.2759 0.45156-0.45659 1.2501-0.88458 1.7733-1.2815 0.65746-0.4988 2.1269-1.234 3.0477-0.77988 0.21506 0.10605 0.29641 0.3998 0.51147 0.50584 0.07604 0.03749 0.19405-0.06102 0.25433-0.0013 0.19677 0.1946 0.19324 0.75518 0.25996 1.0159 0.1835 0.71712 0.84508 1.3119 1.0286 2.029 0.04203 0.16426-0.03136 0.34258 0.0028 0.50866 0.19602 0.95264 0.61388 1.8385 0.77848 2.7934 0.0864 0.50128-0.07795 1.0247 0.0084 1.526 0.5883 3.4132 0.56473 7.2051-0.70527 10.432-0.50785 1.2903-0.72694 3.2926-1.7564 4.3335-0.1333 0.13479-0.37395 0.12236-0.50725 0.25715-0.1333 0.13479-0.16768 0.34004-0.25152 0.51007-0.59109 0.42717-1.1822 0.85434-1.7733 1.2815z" clip-path="url(#tree-3-clip)" fill="none" stroke="#6b6b6b" stroke-linecap="round" stroke-width="2"/>
<path d="m78.404 58.318c2.5084-3.6619 5.5626-7.0296 9.1024-9.7152 0.35122-0.26647 0.19628-0.45422 0.50444-0.7658" clip-path="url(#tree-3-clip)" fill="none" stroke="#6b6b6b" stroke-linecap="round" stroke-width="2"/>
<path d="m62.605 52.81c-0.17143-0.33817-0.26305-0.73056-0.51429-1.0145-1.0462-1.1824-2.8154-1.879-4.0848-2.7751-1.6428-1.1598-3.1737-2.4284-4.852-3.5339" clip-path="url(#tree-3-clip)" fill="none" stroke="#6b6b6b" stroke-linecap="round" stroke-width="2"/>
<path d="m24.827 74.129c-0.067 2.3733 0.22023 4.7108 1.3097 6.8599 0.27642 0.54528 0.71952 0.99124 1.0258 1.5203 1.2196 2.1072 2.4297 4.2787 4.6089 5.5699 0.46129 0.27332 1.0299 0.30384 1.5288 0.50021 0.47792 0.18811 1.0844 0.62984 1.5302 0.75454 0.24493 0.06852 0.51189-0.04465 0.76299-0.0042 0.67449 0.10858 0.65509 0.37444 1.2731 0.24729 3.1609-0.65041 5.8312-2.9089 7.0889-5.889 0.13591-0.32204 0.11279-0.69668 0.2487-1.0187 0.11885-0.28162 0.38558-0.48418 0.50444-0.7658 0.5374-1.2734 0.66173-2.9714 0.48473-4.3264-0.07765-0.59442-0.16236-1.1881-0.26418-1.7789-0.16512-0.95801-0.32718-0.6454-0.77144-1.5218-0.19844-0.39144-0.46633-1.9788-0.77566-2.2847-0.06028-0.05961-0.16955 0.0011-0.25433 0.0013" clip-path="url(#tree-3-clip)" fill="none" stroke="#6b6b6b" stroke-linecap="round" stroke-width="2"/>
<path d="m29.129 70.29c1.5228 3.8161 1.1844 8.3338 3.3725 11.935 0.22555 0.37124 0.96932 0.95864 1.2787 1.2646 0.20748 0.2052 0.50737 0.63064 0.76721 0.75877 1.1963 0.58989 2.6539-1.2671 3.0407-2.0515 0.1468-0.2977 0.63764-0.45945 0.75877-0.76721 0.28172-0.71576 0.29501-1.1603 0.4988-1.7831 0.03729-0.11395 0.21564-0.14179 0.25292-0.25574 0.48429-1.4801-0.41276-5.8431-0.80382-7.3713-0.29872-1.1674-0.25465-0.0563-0.25855-0.76158" clip-path="url(#tree-3-clip)" fill="none" stroke="#6b6b6b" stroke-linecap="round" stroke-width="2"/>
<path d="m26.477 96.502c-1.342-5.1234-3.5398-10.001-5.9312-14.719-1.0303-2.0323-2.0773-4.334-3.5944-6.0842-0.78954-0.91087-1.5798-2.0577-2.5588-2.7836-0.34453-0.25543-0.97293-0.45634-1.2759-0.75595-0.29105-0.28784 0.33629-0.51054 0.50584-0.51147" clip-path="url(#tree-3-clip)" fill="none" stroke="#6b6b6b" stroke-linecap="round" stroke-width="2"/>
<path d="m7.6599 51.334c-0.4206 0.59578-0.87367 1.1699-1.2618 1.7873-0.69899 1.1119-0.26774 1.038-1.2604 2.0417-0.87357 0.8833-3.8354 3.347-4.8112 3.8417-0.61177 0.31013-2.33 0.64132-3.0491 0.52555-0.10162-0.01635-4.0611-0.96748-4.3321-1.502-0.054211-0.10694 0.16861-0.17049 0.25292-0.25574" clip-path="url(#tree-3-clip)" fill="none" stroke="#6b6b6b" stroke-linecap="round" stroke-width="2"/>
<path d="m8.9738 58.957c-1.8886 5.381-7.7258 10.064-13.422 10.502-1.2476 0.09606-2.5437-0.05254-2.5517-1.5119" clip-path="url(#tree-3-clip)" fill="none" stroke="#6b6b6b" stroke-linecap="round" stroke-width="2"/>
<path d="m1.7475 85.956c-0.08853-0.67774-0.46585-1.3797-0.26559-2.0332 0.65576-2.14 1.7919-4.1032 2.7638-6.1194 1.8802-3.9005 4.1311-7.4978 6.2963-11.226 1.1207-1.9296 2.0234-2.0335 2.0192-2.8089" clip-path="url(#tree-3-clip)" fill="none" stroke="#6b6b6b" stroke-linecap="round" stroke-width="2"/>
<path d="m10.178 92.777c-1.3417-2.5191-1.5834-5.5754-1.3181-8.3858 0.18156-1.9231 2.9828-5.3708 5.3156-4.6075 1.172 0.38347 3.1553 3.2478 3.5845 4.3039 0.60573 1.4903 0.0053 0.0306 0.26278 1.5246 0.16258 0.94324 0.59167 1.8856 0.77847 2.7934 0.20123 0.97798 0.07138 2.0793 0.27122 3.0506 0.33929 1.649 0.25119-0.56822 0.25996 1.0159 0.0024 0.42388 0.0047 0.84777 7e-3 1.2717 4.76e-4 0.08477-9.26e-4 -0.16956-0.0014-0.25433" clip-path="url(#tree-3-clip)" fill="none" stroke="#6b6b6b" stroke-linecap="round" stroke-width="2"/>
</g>
</g>
</svg>
