<?xml version="1.0" encoding="UTF-8"?>
<svg width="142.76mm" height="225.13mm" version="1.1" viewBox="0 0 142.76 225.13" xmlns="http://www.w3.org/2000/svg">
<defs>
<clipPath id="tree-2-clip">
<path d="m63.168 80.287c9.0813 26.14 1.9331 59.792 0.29958 86.38-3.1714 27.8 0.33668 53.684-7.224 77.4-1.0685 3.2055-6.1328 6.2766-8.7719 8.256-6.5539 4.9154-28.419 16.057-28.419 16.057l4.2196 1.9807s24.977-9.8451 27.303-10.545c12.206-4.5267 19.216-3.2803 15.426 13.812l2.6778 0.73369c0.25884-0.45463 3.6359-6.0232 3.9517-6.4063 20.716-25.134 24.309 6.1482 49.145 6.5555l0.57462-2.9468c-17.35-4.2418-22.752-15.345-22.752-15.345 12.56-0.63213 21.586 3.0368 33.888 6.1113l6.1553-1.9148c-14.459-3.8325-33.002-7.5702-39.539-17.896-10.702-29.524-7.7631-67.838-7.74-98.039 5.2913-36.29 67.065-63.696 55.178-95.095l-4.377 0.0279c3.497 18.3-8.0307 29.305-27.468 49.321 1.0948-9.7388 2.6923-33.485 2.6968-49.224l-6.6272 0.02492c0.57402 18.16-0.61876 65.514-17.854 61.404-5.5905-23.541-5.884-40.117-3.1816-61.162l-21.701-0.0933s-1.2622 18.641-1.169 18.641c-16.087-2.5121-38.175-7.5164-50.358-18.83l-11.203 0.14854c19.026 16.902 47.253 22.339 56.869 30.644z" fill="#808080" stroke-width=".26458"/>
</clipPath>
</defs>
<g transform="translate(-6.2988 -49.385)" fill="#fff" fill-opacity=".10204">
<g>
<path d="m63.168 80.287c9.0813 26.14 1.9331 59.792 0.29958 86.38-3.1714 27.8 0.33668 53.684-7.224 77.4-1.0685 3.2055-6.1328 6.2766-8.7719 8.256-6.5539 4.9154-28.419 16.057-28.419 16.057l4.2196 1.9807s24.977-9.8451 27.303-10.545c12.206-4.5267 19.216-3.2803 15.426 13.812l2.6778 0.73368c0.25884-0.45463 3.6359-6.0232 3.9517-6.4063 20.716-25.134 24.309 6.1482 49.145 6.5555l0.57462-2.9468c-17.35-4.2418-22.752-15.345-22.752-15.345 12.56-0.63213 21.586 3.0368 33.888 6.1113l6.1553-1.9148c-14.459-3.8325-33.002-7.5702-39.539-17.896-10.702-29.524-7.7631-67.838-7.74-98.039 5.2913-36.29 67.065-63.696 55.178-95.095l-4.377 0.0279c3.497 18.3-8.0307 29.305-27.468 49.321 1.0948-9.7388 2.6923-33.485 2.6968-49.224l-6.6272 0.02493c0.57402 18.16-0.61876 65.514-17.854 61.404-5.5905-23.541-5.884-40.117-3.1816-61.162l-21.701-0.0933s-1.2622 18.641-1.169 18.641c-16.087-2.5121-38.175-7.5164-50.358-18.83l-11.203 0.14854c19.026 16.902 47.253 22.339 56.869 30.644z" fill="#808080" fill-opacity="1" stroke-width=".26458"/>
<path d="m57.736 184.08c0.66334 0.22622 5.5535-0.90743 8.3746-3.3527 6.3904-5.5391 10.108-11.779 10.061-20.403-0.0053-0.95777 0.17637-2.1127-0.01688-3.052 0.05554-0.51105-0.40252-0.82654-0.5157-1.2688-0.64859-2.5347-1.1809-4.7998-2.5827-7.1072-0.33337-0.54871-0.4518-1.2477-0.77284-1.7761-0.1245-0.20493-0.36654-0.31482-0.51147-0.50585-0.37066-0.48856-0.71155-1.2552-1.0272-1.7747-0.25744-0.42373-0.42112-1.1753-0.77144-1.5218-0.13479-0.1333-0.37528-0.11821-0.51007-0.25151-0.28756-0.2844-0.54171-0.92903-0.77003-1.2674-0.19604-0.29056-0.86192-0.63902-1.0215-0.75736-0.35415-0.26256-0.2013-0.45202-0.51288-0.76017-0.15488-0.15318-1.083-0.91449-1.2773-1.0103-0.07604-0.0375-0.19405 0.061-0.25433 1e-3 -0.06028-0.0596 0.05887-0.19472-0.0013-0.25433-0.12056-0.11923-0.3881 0.12204-0.50866 3e-3 -0.06028-0.0596 0.05887-0.19471-0.0013-0.25432-0.08525-0.0843-0.67915-0.1658-0.7644-0.25011-0.06028-0.0596 0.05887-0.19472-0.0013-0.25433-0.01386-0.0137-0.75195-0.49073-0.7658-0.50444-0.06028-0.0596 0.05887-0.19471-0.0013-0.25433-0.43058-0.42584-0.76187 0.20579-0.7644-0.2501" clip-path="url(#tree-2-clip)" fill="none" stroke="#646464" stroke-linecap="round" stroke-width="2"/>
<path d="m61.752 174.39c4.6518-0.72669 7.8079-6.0573 8.3352-10.474 0.27894-2.3365-0.1534-4.6427-0.801-6.8627-0.29822-1.0223-0.3685-2.4214-1.0356-3.3006-0.81919-1.0798-1.7561-1.9461-2.8131-2.7822-0.59673-0.47198-2.2829-1.7677-3.0618-1.7634" clip-path="url(#tree-2-clip)" fill="none" stroke="#646464" stroke-linecap="round" stroke-width="2"/>
<path d="m99.83 161.21c-1.0022 2e-3 -1.7929 0.68544-2.7948 0.52415-1.0292-0.16569-4.7652-1.5291-5.6065-2.0037-0.79004-0.44567-1.4844-1.1124-2.2974-1.5133-3.1497-1.5531-5.5305-4.1021-7.415-7.0804-0.14335-0.22655-0.11935-0.53246-0.25855-0.76158-0.6976-1.1482-2.103-2.6214-2.8187-3.7995-0.1392-0.22912-0.12426-0.52955-0.25855-0.76158-0.68817-1.189-1.403-2.0129-2.0529-3.295-0.79913-1.5764-1.5122-3.2346-2.3157-4.8196-0.27642-0.54528-0.71952-0.99124-1.0258-1.5204-0.84263-1.4558-1.3202-3.1896-2.3143-4.5653-0.21068-0.29153-0.55654-0.46725-0.76721-0.75877-0.66304-0.91747-1.0313-1.9058-1.7958-2.7878-1.7537-2.0232-4.2481-4.1238-6.6421-5.3043-1.8301-0.90241-4.0369-2.521-6.118-2.5095" clip-path="url(#tree-2-clip)" fill="none" stroke="#646464" stroke-linecap="round" stroke-width="2"/>
<path d="m96.206 149.78c-2.1707 0.63432-4.0858 0.18059-5.8552-0.98494-0.98737-0.65039-2.1989-0.91004-3.0618-1.7634-0.38361-0.37938-0.38783-1.1424-0.77144-1.5218-0.13479-0.1333-0.37528-0.11821-0.51007-0.25151-0.86653-0.85699-1.0641-2.6967-1.2928-3.8079-0.03821-0.18568-0.17143-0.33816-0.25715-0.50725-0.08618-0.25386-0.21302-0.49739-0.25855-0.76158-0.57879-3.358-0.35053-8.3931 1.4626-11.453 0.12223-0.2063 0.38361-0.30518 0.50584-0.51147 0.13666-0.23065 0.10264-0.54052 0.25011-0.7644 0.14012-0.21273 1.0307-0.9948 1.2646-1.2787 1.6129-1.9574 3.5395-3.4521 5.8242-4.6103 2.6452-1.341 9.0268-4.0825 11.935-3.3725 0.72046 0.17589 1.3238 0.51777 2.0389 0.75173 1.397 0.45709 2.5062 1.109 3.8248 1.7592 0.33172 0.16358 2.7076 1.2567 2.0417 1.2604" clip-path="url(#tree-2-clip)" fill="none" stroke="#646464" stroke-linecap="round" stroke-width="2"/>
<path d="m95.152 143.17c-0.42436-0.0824-0.89655-0.0349-1.2731-0.24729-0.26623-0.15018-0.31267-0.52919-0.51288-0.76017-0.54501-0.62877-1.1979-0.9952-1.5358-1.7719-0.54733-1.2578-0.86649-5.0338-0.54385-6.3554 0.15705-0.6433 1.3154-2.6088 1.7634-3.0618 0.7015-0.7093 3.0606-1.9734 4.0566-2.3115 1.0484-0.35593 3.6714 0.18579 4.5808 0.48332 0.74847 0.2449 1.0419 0.75725 1.2759 0.75595" clip-path="url(#tree-2-clip)" fill="none" stroke="#646464" stroke-linecap="round" stroke-width="2"/>
<path d="m79.09 136.14c-1.0271-1.1651-1.0593-2.5836-1.8014-3.8051-0.1245-0.20493-0.38697-0.30091-0.51147-0.50584-0.23705-0.39018-0.3438-0.84589-0.5157-1.2688-0.40238-0.99003-0.60791-2.0666-1.0342-3.0463-0.25595-0.58821-0.6608-1.126-0.77284-1.7761-0.3068-1.78-0.52666-3.5463-0.79255-5.3367-0.13489-0.90828 0.12254-1.6868 0.24025-2.5447 0.18252-1.3302 0.32644-2.7344 0.48614-4.0721 0.44242-3.7059 1.3393-7.3068 2.2284-10.949 0.28692-1.1753 0.80639-2.3784 0.99761-3.5662 0.28443-1.7668-0.46392 0.38333 0.24448-1.7817 0.86628-2.6476 1.2437-5.0573 1.228-7.8913-3e-3 -0.53928 0.09663-1.2628-0.0098-1.7803-0.12073-0.58675-0.41225-1.161-0.51851-1.7775-0.15828-0.9183-0.22924-1.9261-0.52414-2.7948-0.03854-0.11353-0.17049-0.16861-0.25574-0.25292-0.08571-0.16908-0.21015-0.3236-0.25715-0.50725-0.1719-0.67177-0.34802-1.3601-0.51992-2.0318-0.11393-0.44524-0.67316-0.88888-0.77003-1.2674-0.06305-0.24639 0.04704-0.51387-0.0042-0.76299-0.10523-0.51103-0.5743-1.0365-0.77151-1.5218-0.57371-1.4116-1.1969-3.934-2.0628-5.0753-0.6227-0.82077-0.95827-1.6726-1.5401-2.5349-0.13411-0.19878-0.38697-0.30091-0.51148-0.50584-0.44595-0.73401-1.2087-2.713-1.7986-3.2964-0.13478-0.1333-0.37528-0.11821-0.51007-0.25151-0.39777-0.39338-0.68296-1.0685-1.0258-1.5203-0.78647-1.0366-1.8424-1.9823-2.8131-2.7821-0.64667-0.53286-1.2069-0.94072-1.7888-1.5161-0.14151-0.13995-0.68834-0.58277-0.7658-0.50444-0.2554 0.25824 0.25793 0.64938 0.25714 0.50725-0.0011-0.18957-0.17143-0.33817-0.25714-0.50725" clip-path="url(#tree-2-clip)" fill="none" stroke="#646464" stroke-linecap="round" stroke-width="2"/>
<path d="m82.338 125.7c-1.176-1.3204-1.1525-2.9452-1.297-4.5709-0.05309-0.59711-0.26087-1.1794-0.26418-1.7789-0.01413-2.5534 0.68749-5.9522 1.9896-8.1498 0.43482-0.73388 1.2287-1.3888 1.769-2.0445 0.5964-0.7238 1.1113-1.6351 1.7676-2.2988 0.21494-0.21733 0.5292-0.31267 0.76017-0.51288 1.1628-1.0079 2.2048-2.2294 3.288-3.3246 1.8615-1.8822 4.0993-3.5459 5.0528-6.1321 0.70349-1.908 1.7582-6.0681 1.2266-8.1456-0.047-0.18365-0.21015-0.3236-0.25715-0.50725-0.10479-0.40951 0.23961-0.76434-0.25855-0.76158" clip-path="url(#tree-2-clip)" fill="none" stroke="#646464" stroke-linecap="round" stroke-width="2"/>
<path d="m94.971 64.585c0.04781 2.0548-0.53612 4.063-0.7292 6.1081-0.04672 0.4948 0.07324 1.3184 0.0098 1.7803-0.17413 1.269-0.53834 2.5549-0.74187 3.8192-0.3407 2.1164-0.37891 4.3334-1.2365 6.3653-0.3683 0.87267-0.89727 1.6966-1.2576 2.5503-0.37401 0.8862-0.52022 1.9495-1.0018 2.8033-0.62906 1.1152-1.444 2.1568-2.0163 3.3176-0.35829 0.72662-0.59373 1.6011-1.0046 2.2946-0.41191 0.69521-1.0864 1.3201-1.5147 2.0431-0.35474 0.59872-0.62796 1.2098-1.0075 1.7859-0.1319 0.20025-0.3998 0.29641-0.50584 0.51147-0.03749 0.07604 0.06102 0.19405 0.0013 0.25433-0.05962 0.06028-0.19472-0.05887-0.25433 0.0013-0.08431 0.08525-0.1658 0.67915-0.2501 0.7644-0.05962 0.06028-0.19472-0.05887-0.25433 0.0013-0.32237 0.32596-0.48255 1.7667-0.75173 2.0389-0.05961 0.0603-0.19472-0.0589-0.25433 1e-3 -0.24759 0.25034-0.69345 1.9207-1.0032 2.5489" clip-path="url(#tree-2-clip)" fill="none" stroke="#646464" stroke-linecap="round" stroke-width="2"/>
<path d="m61.902 109.53c0.8473-0.0895 1.7495 0.0448 2.5419-0.2684 1.5066-0.59552 4.9107-4.5823 5.3128-5.1162 0.71588-0.95046 0.61111-1.6198 1.0032-2.5489 0.95754-2.2689 1.5258-4.716 1.9952-7.1325 0.17437-0.89767-0.18986-1.9-0.01548-2.7976 0.23892-1.23 0.39192-1.3474-0.01408-2.5433-0.18099-0.53311 0.17113-1.2472-0.0098-1.7803-0.141-0.41531-0.5618-0.85667-0.77003-1.2674-0.31667-0.62467 0.73952 0.22551-0.25855-0.76158-0.06028-0.05961-0.19405 0.06102-0.25433 0.0013-0.13478-0.1333-0.12236-0.37395-0.25714-0.50725-0.06028-0.05961-0.1783 0.0389-0.25433 0.0013-0.79771-0.39335-1.109-1.2867-2.0431-1.5147-2.174-0.53072-3.7179-0.63205-6.1053-0.22055-0.80194 0.13822-1.7653-0.21286-2.5433 0.01408-0.9863 0.28771-2.8549 1.0964-3.5508 1.8" clip-path="url(#tree-2-clip)" fill="none" stroke="#646464" stroke-linecap="round" stroke-width="2"/>
<path d="m88.658 118.79c0.23734-1.6352 1.159-2.5289 2.0135-3.8262 0.82264-1.2489 1.3105-2.2093 2.2707-3.319 0.68978-0.79718 1.4334-1.2502 2.0234-2.0459 0.42459-0.5727 1.1305-0.69041 1.5189-1.2801 0.23974-0.36396 1.73-2.0443 2.0234-2.0459" clip-path="url(#tree-2-clip)" fill="none" stroke="#646464" stroke-linecap="round" stroke-width="2"/>
<path d="m113.56 114.59c-0.92467-0.13369-1.8716 0.12603-2.7976 0.0155-1.4382-0.17171-2.4739-1.0152-3.3176-2.0163-0.38632-0.4584-0.90162-0.79858-1.2787-1.2646-2.2916-2.8322-2.7675-6.2101-3.3598-9.6462-0.0827-0.47975 0.17454-3.3685-0.0197-3.5606-0.0603-0.05961-0.2548-0.08337-0.25433 0.0013 5.3e-4 0.08083 1.3693 1.3543 0 0" clip-path="url(#tree-2-clip)" fill="none" stroke="#646464" stroke-linecap="round" stroke-width="2"/>
<path d="m118.36 109.22c-0.0359-0.55114-1.4725-0.092-1.7817-0.24447-0.71157-0.35088-2.2058-1.568-2.8075-1.7648-0.16115-0.0527-0.34751 0.0555-0.50866 3e-3 -0.29268-0.0958-0.35622-0.60524-0.51288-0.76017-0.13479-0.1333-0.37528-0.11821-0.51007-0.25152-0.69881-0.69112-0.61259-4.2926-0.79255-5.3367-0.0455-0.2642-0.21917-0.4964-0.25855-0.76158-0.13564-0.91329 0.10412-1.8819-0.0155-2.7976-0.0906-0.6932-0.43888-1.3374-0.51992-2.0318-0.44635-3.8242-0.73265-7.088-2.3481-10.669-0.47091-1.044-1.2878-1.7856-1.7958-2.7878-0.10042-0.19809-0.29224-1.0478-0.5157-1.2688-0.0603-0.05961-0.16956 0.0011-0.25433 0.0013" clip-path="url(#tree-2-clip)" fill="none" stroke="#646464" stroke-linecap="round" stroke-width="2"/>
<path d="m119.77 88.61c-0.42435-0.08243-0.8622-0.11286-1.273-0.24729-0.53115-0.17379-0.51784-0.50898-1.0216-0.75736-0.35497-0.17504-1.0989-0.2348-1.2759-0.75595-0.0545-0.16055 0.0517-0.3481-3e-3 -0.50866-0.13292-0.39153-0.83273-0.95178-1.0258-1.5203-0.37857-1.1151-0.83995-2.1921-1.29-3.2992-0.95975-2.3614-1.5486-4.72-3.8487-6.0828-0.12883-0.07633-0.98487-0.69942-1.2759-0.75595-0.49933-0.09699-1.022 0.07759-1.526 0.0084-1.9258-0.26424-0.46917-0.25174-1.273-0.24729" clip-path="url(#tree-2-clip)" fill="none" stroke="#646464" stroke-linecap="round" stroke-width="2"/>
<path d="m107.95 65.785c1.0694-0.18433 2.2057-0.4662 3.3049-0.27263 0.37339 0.06576 0.66734 0.36417 1.0201 0.50303 4.225 1.6629 5.4653 3.2183 8.1752 6.5675 0.35366 0.43708 1.2769 0.93406 1.2801 1.5189" clip-path="url(#tree-2-clip)" fill="none" stroke="#646464" stroke-linecap="round" stroke-width="2"/>
<path d="m109.17 56.113c4.0107 0.31608 10.638 1.8303 12.955-2.8694" clip-path="url(#tree-2-clip)" fill="none" stroke="#646464" stroke-linecap="round" stroke-width="2"/>
<path d="m119.29 92.427c5.9747 3.1302 7.4726 5.3477 13.229 0.68979" clip-path="url(#tree-2-clip)" fill="none" stroke="#646464" stroke-linecap="round" stroke-width="2"/>
<path d="m127.89 83.732c6.3867 1.8713 7.9421 0.71732 13.211-2.6165" clip-path="url(#tree-2-clip)" fill="none" stroke="#646464" stroke-linecap="round" stroke-width="2"/>
<path d="m136.21 71.478c0.84495-0.51335 1.6625-1.0748 2.5348-1.5401 0.73671-0.39296 1.5488-0.63299 2.2833-1.03 3.0744-1.6616 5.5661-4.8285 7.8434-7.4192 1.4818-1.6857 2.4031-3.8705 3.784-5.6164 0.38635-0.48846 2.2765-2.2595 2.2735-2.8103" clip-path="url(#tree-2-clip)" fill="none" stroke="#646464" stroke-linecap="round" stroke-width="2"/>
<path d="m73.187 80.729c-0.84575-3.2661-5.5998-5.1708-8.4295-6.5661-0.77735-0.38331-1.3805-0.99067-2.0431-1.5147-2.7031-2.1381-5.8586-3.7154-7.9208-6.5689-1.0649-1.4736-1.749-3.9007-2.3199-5.5826-0.23952-0.70552-0.22403-1.4863-0.77425-2.0304" clip-path="url(#tree-2-clip)" fill="none" stroke="#646464" stroke-linecap="round" stroke-width="2"/>
<path d="m52.314 77.538c-0.93834-0.7894-1.5932-1.8008-2.3045-2.785-1.6459-2.2775-2.3449-5.0446-3.3485-7.6116-0.92402-2.3633-0.67332-0.64067-1.2885-3.0449-0.09172-0.35846-0.7598-4.0652-1.0398-4.0636-0.18957 0.0011 0.12236 0.37395 0.25715 0.50725" clip-path="url(#tree-2-clip)" fill="none" stroke="#646464" stroke-linecap="round" stroke-width="2"/>
<path d="m29.391 71.561c1.0979-0.76909 2.3269-1.3787 3.2936-2.3073 2.612-2.5091 4.0452-6.9525 3.2486-10.446-0.23751-1.0415-0.45987-2.9842-1.2928-3.8079-0.06028-0.05961-0.17829 0.0389-0.25433 0.0013-1.0614-0.52337 0.27198 0.01606-0.25715-0.50725-0.48758-0.48221 0.2453 1.2544-0.50584 0.51147" clip-path="url(#tree-2-clip)" fill="none" stroke="#646464" stroke-linecap="round" stroke-width="2"/>
<path d="m17.635 61.452c3.506-1.2879 6.2455-3.9641 7.079-7.6693 0.21708-0.96504-0.26344-1.6453-0.26841-2.5419" clip-path="url(#tree-2-clip)" fill="none" stroke="#646464" stroke-linecap="round" stroke-width="2"/>
<path d="m83.401 88.048c0.33954-1.4006 1.1339-3.0335 0.73765-4.5822-0.04699-0.18365-0.21894-0.32158-0.25715-0.50725-0.10252-0.49823 0.07796-1.0247-0.0084-1.526 0.08547-0.51796-0.42369-0.82166-0.5157-1.2688-0.05126-0.24911 0.04703-0.51387-0.0042-0.76299-0.37466-1.8209-1.7434-3.4687-2.0642-5.3297-0.28317-1.6429-0.71038-3.2049-1.0441-4.8266-0.7266-3.5312 1.8652-8.3046 4.5202-10.453 1.2094-0.97856 0.27164-0.1377 1.5218-0.77144 0.91824-0.46549 1.6533-1.2596 2.5334-1.7944 1.5829-0.96171 4.5127-1.8053 6.3484-1.8155 0.55204-3e-3 0.95518-0.32003 1.2716-7e-3" clip-path="url(#tree-2-clip)" fill="none" stroke="#646464" stroke-linecap="round" stroke-width="2"/>
<path d="m75.901 65.453c-0.01971-2.1455-0.53431-3.9882-1.5584-5.8411-0.68115-1.2325-1.9794-3.4394-3.0759-4.3067-0.85409-0.67556-1.9047-0.97641-2.8061-1.5105-0.93036-0.55124-0.58562-0.53503-1.7859-1.0075-0.81082-0.31914-1.7886-1.0083-2.5503-1.2576-0.24172-0.07909-0.53488 0.1167-0.76299 0.0042-0.10753-0.05303-0.17143-0.33817-0.25574-0.25292-0.08431 0.08525 0.17049 0.16862 0.25574 0.25292" clip-path="url(#tree-2-clip)" fill="none" stroke="#646464" stroke-linecap="round" stroke-width="2"/>
<path d="m72.229 45.381c0.26033 1.9236 0.63351 3.7323 1.8099 5.3311 1.329 1.8063 4.2636 3.6208 6.6295 3.0154 0.49739-0.12728 0.85067-0.55876 1.2674-0.77003 2.8926-1.4664 4.0922-2.273 5.3114-5.3705 0.33648-0.85488 0.75405-1.619 0.74891-2.5475" clip-path="url(#tree-2-clip)" fill="none" stroke="#646464" stroke-linecap="round" stroke-width="2"/>
<path d="m80.234 159.03c1.0794 2.2662 1.0443 4.8609 1.0581 7.3699 0.0049 0.88575 0.15548 1.928 0.01548 2.7976-0.39296 2.441-1.1427 4.8881-1.4852 7.384-0.07986 0.58203 0.08972 1.1983 0.0098 1.7803-0.33418 2.4355-0.37543 4.9606 0.04082 7.3756 0.18682 1.0839 0.08567 2.2202 0.27263 3.3049 0.13224 0.76723 0.55736 1.5364 0.77566 2.2848 0.23749 0.81413 0.38866 1.7729 0.77706 2.5391 0.13821 0.27264 0.39092 0.47989 0.51288 0.76018 0.13947 0.32052 0.12049 0.69539 0.25996 1.0159 0.61441 1.412 1.572 2.6559 2.5644 3.8009 0.47767 0.55108 0.76297 1.2604 1.2815 1.7733 2.514 2.4863 6.4803 4.9556 10.199 4.5216 2.2765-0.26571 3.4772-0.54847 5.5896-1.0483 0.52178-0.12346 0.98699-0.51414 1.5232-0.51711 0.18956-1e-3 -0.11822 0.37528-0.25152 0.51007" clip-path="url(#tree-2-clip)" fill="none" stroke="#646464" stroke-linecap="round" stroke-width="2"/>
<path d="m87.384 164.33c-1.0193 3.1153-1.1747 3.2695-1.7395 7.3854-0.29024 2.1152 0.41188 4.2942 0.79818 6.354 1.0789 5.7526 3.2239 12.501 8.7331 15.466 2.5756 1.3864 5.3571 1.5306 8.1428 0.71795 0.40799-0.11902 1.2704-0.24071 1.2674-0.77003" clip-path="url(#tree-2-clip)" fill="none" stroke="#646464" stroke-linecap="round" stroke-width="2"/>
<path d="m75.51 178.64c-0.16768 0.34005-0.84307 0.85246-0.50303 1.0201 0.34005 0.16767 0.59294-1.3885 0.50303-1.0201-0.31453 1.2884-0.99557 2.5094-1.2505 3.822-0.24129 1.2422 0.0095 2.567-0.23321 3.8164-0.21255 1.0942-0.82302 2.2186-0.99902 3.3119 0.01347 2.434 0.11059-0.56933-0.24729 1.2731-0.14267 0.73445 0.15534 1.5545 0.01267 2.289-0.32288 1.6622-0.50918 4.923-0.21773 6.614 0.18858 1.0941 0.61782 2.2013 0.78129 3.3021 0.04981 0.33544-0.04419 0.68189 0.0056 1.0173 0.10579 0.71234 0.5481 1.3643 0.77425 2.0304 0.46956 1.3831 1.3442 3.42 1.5527 4.8238 0.04982 0.33543-0.04418 0.68188 0.0056 1.0173 0.07876 0.53036 0.38419 1.0037 0.5171 1.5232 0.2478 0.9684 0.37914 2.0632 0.52555 3.0491 0.10169 0.68474 0.0089 1.6092 0.01267 2.289 0.01902 3.4364-0.57946 6.6872-2.7455 9.4257-2.1889 2.7674-5.0879 6.0266-8.0949 7.9293-0.9418 0.5959-2.049 1.0387-3.0435 1.5429-1.1453 0.58062-2.5331 1.073-3.8079 1.2928-1.7364 0.29929 0.21043-0.29084-1.526 8e-3 -0.62562 0.10783-1.3617 0.48531-2.0332 0.26559-0.11395-0.0373-0.14179-0.21564-0.25574-0.25292-0.16115-0.0527-0.34394 0.043-0.50866 3e-3 -1.2298-0.30024 0.01193-0.12093-0.7658-0.50444-0.15207-0.075-0.3881 0.12205-0.50866 3e-3 -0.06028-0.0596 0.05887-0.19472-0.0013-0.25433-0.06028-0.0596-0.2548-0.0834-0.25433 1e-3 5.29e-4 0.0848 0.16955-1e-3 0.25433-1e-3" clip-path="url(#tree-2-clip)" fill="none" stroke="#646464" stroke-linecap="round" stroke-width="2"/>
<path d="m77.124 194.65c1.3487 2.2806 1.3727 4.9719 2.5841 7.3615 0.13821 0.27264 0.39092 0.47989 0.51288 0.76017 0.55518 1.2759 0.73846 2.7852 1.2942 4.0622 1.4948 3.4353-0.58027-2.4407 1.0272 1.7747 1.8879 4.9508 3.137 11.468 2.6362 16.772-0.10598 1.1225-0.31293 1.2523-0.49599 2.2918-0.59026 3.3518-1.4899 6.5185-1.4711 9.9273 0.0033 0.59343-0.09095 1.1955 0.0098 1.7803 0.08531 0.49497 0.56548 0.86393 0.77003 1.2674 0.3313 0.65353 0.57041 1.4251 1.0286 2.029 1.1213 1.478 3.6943 3.0815 5.362 3.7854 1.8597 0.78486 3.9043 0.7791 5.8552 0.98494 1.1422 0.12052 2.1206 0.36138 3.3077 0.23603 1.5866-0.16754 3.2707-0.68925 4.8266-1.0441 1.3207-0.30117 3.1264-1.5433 4.3152-1.5499" clip-path="url(#tree-2-clip)" fill="none" stroke="#646464" stroke-linecap="round" stroke-width="2"/>
<path d="m104.08 239.26c-0.78119 1.1932-1.1512 0.83864-2.0276 1.2829-0.27254 0.13816-0.72361-0.0941-1.0173 6e-3 -2.6584 0.90251-4.3566 0.50902-6.6182-0.98071-0.29454-0.19402-0.47267-0.56476-0.76721-0.75877-0.54372-0.35815-1.4718-0.89081-1.7888-1.5161-1.3465-2.6561-1.734-5.0905-1.3167-8.1315 0.22244-1.6211 0.64099-3.3922 1.4992-4.8407 0.67969-1.1472 0.25991-7e-3 1.0131-0.76862 0.1333-0.13479 0.09437-0.40405 0.25152-0.51007 0.14055-0.0948 0.3481 0.0517 0.50866-3e-3 0.22706-0.0771 0.27878-0.43439 0.50584-0.51148 0.16056-0.0545 0.3481 0.0517 0.50866-3e-3 0.39432-0.13388 0.82064-0.61835 1.2674-0.77003 0.43517-0.14774 0.98283-0.4186 1.2688-0.5157 0.38079-0.12928 0.89086 0.12224 1.2716-7e-3 0.11353-0.0385 0.13939-0.2172 0.25292-0.25574 0.53662-0.18218 1.061 0.0933 1.5274 0.24588 0.16115 0.0527 0.3881-0.12204 0.50866-3e-3 0.0603 0.0596-0.0589 0.19472 1e-3 0.25433 0.39615 0.39178 0.25006-0.77437 0.25433-1e-3" clip-path="url(#tree-2-clip)" fill="none" stroke="#646464" stroke-linecap="round" stroke-width="2"/>
<path d="m87.383 210.11c1.1928 0.51901 1.988 1.5953 3.0646 2.2721 3.1198 1.9612 7.8304 2.3945 11.456 1.9713 1.3274-0.15494 3.1917-1.035 4.318-1.0412" clip-path="url(#tree-2-clip)" fill="none" stroke="#646464" stroke-linecap="round" stroke-width="2"/>
<path d="m56.31 202.14c1.6304-1.0311 2.7135-0.16302 4.325 0.2304 2.4829 0.60615 3.1932 1.4497 5.1035 3.0238 0.86558 0.71325 0.7845 0.27661 1.533 1.2632 1.2947 1.7064 2.3917 4.293 3.0872 6.3414 0.57141 1.6831 0.06937 0.77464 0.267 2.2876 0.21251 1.6269 0.443 0.42344 0.267 2.2876-0.3453 3.6573-1.1765 6.0877-3.5113 8.9212-0.38877 0.47181-0.57899 1.0969-1.0089 1.5316-0.43728 0.44215-2.2623 2.0395-2.785 2.3045-0.31178 0.15805-0.68492 0.14759-1.0159 0.25996-1.1424 0.38783 0.25574 0.25292-1.5218 0.77143-0.24416 0.0712-0.51235-0.039-0.76299 4e-3 -0.78067 0.13456-1.5015 0.65934-2.2847 0.77566-1.3344 0.19818-3.5287 0.28606-4.8337-0.22758-0.55529-0.21856-1.273-0.24525-1.2759-0.75595" clip-path="url(#tree-2-clip)" fill="none" stroke="#646464" stroke-linecap="round" stroke-width="2"/>
<path d="m57.108 208.5c1.155 0.34861 2.6685-0.39622 3.8149-0.0211 0.47495 0.1554 1.7001 0.92255 2.0417 1.2604 0.13479 0.1333 0.12236 0.37395 0.25715 0.50725 0.13479 0.1333 0.37528 0.11821 0.51007 0.25152 0.13478 0.1333 0.14257 0.35622 0.25714 0.50725 0.33226 0.43794 1.0304 0.77475 1.2787 1.2646 0.55662 1.098 0.73857 3.5674 0.53541 4.8294-0.24653 1.5314-1.6083 3.3651-2.518 4.592-0.52416 0.707-1.3628 1.8132-2.2777 2.0473-0.16426 0.042-0.3481-0.0517-0.50866 3e-3 -1.1206 0.38043 0.92543 0.24921-0.76158 0.25855-0.78458 4e-3 -1.542 0.33091-2.2862 0.52133-0.7663 0.19609-2.7537 0.17644-3.5606 0.0197-0.31462-0.0611-0.25606-0.31081-0.25715-0.50725" clip-path="url(#tree-2-clip)" fill="none" stroke="#646464" stroke-linecap="round" stroke-width="2"/>
<path d="m67.16 186.57c0.03532 0.39305-1.1137 0.3002-1.2674 0.77003-0.05273 0.16115 0.05554 0.34751 0.0028 0.50866-0.03728 0.11395-0.21564 0.14179-0.25292 0.25574-0.13511 0.41294-0.44731 1.6724-0.4974 2.0374-0.08864 0.64598 0.16573 1.4019 0.01127 2.0346-0.41024 1.6804-0.2197 3.5914 0.53682 5.0838 0.53509 1.0555-0.01905-0.27179 0.51007 0.25151 0.06028 0.0596-0.03693 0.17872 0.0013 0.25434 0.08495 0.16758 0.61027 0.42773 0.7658 0.50443 0.29905 0.14746 0.30102-0.1526 0.50725-0.25714 0.62467-0.31667-0.2255 0.73952 0.76158-0.25856 0.52331-0.52913-0.80402 0.025 0.25152-0.51006 0.07561-0.0383 0.21684 0.0746 0.25433-1e-3 0.13295-0.26962 0.10786-0.7331 0.2487-1.0187 0.59905-1.2149 0.6968-3.4516 0.22758-4.8337-0.15513-0.45695 0.14669-1.069-0.0084-1.526-0.14976-0.44114-0.31993-1.1342-0.51711-1.5232-0.35341-0.69715-1.0321-1.1742-1.5358-1.7719z" clip-path="url(#tree-2-clip)" fill="none" stroke="#646464" stroke-linecap="round" stroke-width="2"/>
<path d="m75.579 237.13c-1.5145 0.11786-1.5732 1.5993-2.0192 2.8089-0.25738 0.69808-0.63223 1.5596-0.75032 2.2932-0.17951 1.1151-0.22822 4.5809 0.2853 5.5938 0.19278 0.38028 2.1554 1.4578 2.5503 1.2576 0.3827-0.19401 0.5409-0.35351 1.0145-0.51429 0.08028-0.0273 0.19472 0.0589 0.25433-1e-3 0.19639-0.19857 0.88694-1.9348 1.0046-2.2946 0.34746-1.0619 0.24233-2.1693 0.23603-3.3077-0.0024-0.41967 0.12163-1.1428-0.0084-1.526-0.07709-0.22706-0.40305-0.29197-0.51148-0.50584-0.07667-0.15124 0.07385-0.35743-0.0028-0.50866-0.55947-1.1036-1.2824-2.153-2.0529-3.295z" clip-path="url(#tree-2-clip)" fill="none" stroke="#646464" stroke-linecap="round" stroke-width="2"/>
<path d="m52.582 263.71c1.0046-2.2946 2.2561-4.4963 3.0139-6.8838 0.44713-1.4086-1.7438-5.3854-2.8328-6.3428-0.40699-0.35777-2.4617-1.5422-3.0618-1.7634-0.89892-0.33143-2.3446-0.61215-3.3105-0.74469-0.33596-0.0461-0.67821 4e-3 -1.0173 6e-3 -0.08478 5.3e-4 -0.19472-0.0589-0.25433 1e-3 -0.05962 0.0603 0.06169 0.31394 0.0013 0.25433-0.13479-0.1333-0.17143-0.33817-0.25715-0.50725" clip-path="url(#tree-2-clip)" fill="none" stroke="#646464" stroke-linecap="round" stroke-width="2"/>
<path d="m33.973 256.18c3.8477 3.0276 6.1465 5.5711 4.3827 10.658-0.55726 1.6072-1.0055 2.1356-1.0117 1.023" clip-path="url(#tree-2-clip)" fill="none" stroke="#646464" stroke-linecap="round" stroke-width="2"/>
<path d="m45.99 267.56c-0.34542-1.8258 1.5404-5.4699 0.9779-7.1269-0.1939-0.57116-0.23982-1.2278-0.51851-1.7775-0.29354-0.57905-0.82329-1.826-1.2843-2.2819-0.13479-0.1333-0.37528-0.11821-0.51007-0.25151-0.28756-0.2844-0.54171-0.92903-0.77003-1.2674-0.31791-0.47119-1.1026-0.99603-1.2801-1.5189-0.05451-0.16055 0.09202-0.3681-0.0028-0.50866-0.10602-0.15714-0.37528-0.11821-0.51007-0.25151-0.07604-0.0752-0.80164-1.8046-1.0286-2.029-0.06028-0.0596-0.19405 0.061-0.25433 1e-3 -0.06028-0.0596-0.08618-0.25386-0.0013-0.25433 0.18957-1e-3 0.59578 0.4206 0.51007 0.25152-0.10842-0.21388-0.34098-0.33723-0.51148-0.50585" clip-path="url(#tree-2-clip)" fill="none" stroke="#646464" stroke-linecap="round" stroke-width="2"/>
<path d="m53.488 243.61c1.0428 1.6022 2.6485 2.6043 4.0904 3.7924 0.32714 0.26956 0.72015 0.45929 1.0215 0.75736 0.13478 0.1333 0.12236 0.37395 0.25714 0.50725 0.46499 0.45987 1.4696 0.92144 2.0417 1.2604 1.7464 1.0347 3.9362 1.2348 5.8594 1.7479 1.6135 0.43046 3.1942 0.76503 4.8379 0.99057 1.5743 0.21601 3.0308 0.99612 4.585 1.2463 1.6034 0.25812 3.3389 0.75867 4.8407 1.4992 1.2482 0.6155 0.32712 0.30585 1.2773 1.0103 0.45685 0.3387 1.0349 0.47512 1.5302 0.75454 0.70745 0.39908 1.4082 1.0125 2.0431 1.5147 0.87226 0.68993 1.8474 1.3991 2.556 2.2749 0.31094 0.3843 0.45909 0.88313 0.77003 1.2674 0.22624 0.27962 0.56604 0.4606 0.76721 0.75877 0.34045 0.5046 0.5437 1.4631 0.77425 2.0304 0.07138 0.1756 0.21894 0.32157 0.25715 0.50723 0.05991 0.29117-0.22477 2.0542 0.01267 2.289 0.13478 0.1333 0.25256-0.32052 0.25151-0.51007" clip-path="url(#tree-2-clip)" fill="none" stroke="#646464" stroke-linecap="round" stroke-width="2"/>
<path d="m69.739 238.95c-0.26184 0.70898-0.72931 1.3372-1.0061 2.0403-0.26072 0.6624-0.47968 1.2523-1.0075 1.7859-0.1333 0.13479-0.37395 0.12236-0.50725 0.25715-0.1333 0.13478-0.11821 0.37528-0.25152 0.51006-0.1333 0.13479-0.35623 0.14257-0.50725 0.25715-1.248 0.94681-2.3827 1.6204-4.0622 1.2942-0.21007-0.0408-3.5536-1.5064-2.2974-1.5133" clip-path="url(#tree-2-clip)" fill="none" stroke="#646464" stroke-linecap="round" stroke-width="2"/>
<path d="m83.518 247.01c0.35388 1.4877 1.0993 2.2446 2.3059 3.0393 0.3829 0.25222 0.25715 0.50725 0.76722 0.75876 0.15207 0.075 0.34751-0.0555 0.50866-3e-3 0.47384 0.15504 0.82439 0.78696 1.2773 1.0103 0.15208 0.075 0.35659-0.0778 0.50866-3e-3 1.0553 0.52037 2.1462 0.71444 3.3119 0.99902 1.0548 0.25751 3.1867 1.4233 4.0805 2.0121 0.07862 0.0518 1.2783 1.5136 1.2801 1.5189 0.05451 0.16055-0.06103 0.35158 0.0028 0.50866-0.13751 0.63066 0.57696 0.63501 0.76862 1.0131 0.19546 0.38557 0.09861 0.86978 0.26137 1.2702 0.04514 0.11107 0.2172 0.13939 0.25574 0.25292 0.07757 0.22847-0.07334 0.53451 0.0042 0.76299 0.32709 0.96346 0.0976 1.797 0.26982 2.7962 0.24431 1.4174 0.26875 2.6036 0.27685 4.0679 0.0061 1.099-0.32828 2.7106 0.52837 3.5578" clip-path="url(#tree-2-clip)" fill="none" stroke="#646464" stroke-linecap="round" stroke-width="2"/>
<path d="m107.58 274.6c1.3161-8.1752-0.61327-6.237 4.013-10.196 0.14403-0.12324 0.31768-0.25609 0.50725-0.25714 0.11989-7.9e-4 0.17143 0.33817 0.25574 0.25292 0.0843-0.0852-0.17049-0.16861-0.25574-0.25292" clip-path="url(#tree-2-clip)" fill="none" stroke="#646464" stroke-linecap="round" stroke-width="2"/>
<path d="m63.759 261.36c0.50584-0.51147 0.88468-1.1924 1.5175-1.5344 0.68761-0.37163 1.5172-0.38124 2.2862-0.52133 0.67243-0.12251 1.351-0.30728 2.0332-0.26559 1.3887 0.0849 5.0106 1.9202 6.1208 3.0182 0.68727 0.67971 1.2524 1.4778 1.793 2.2791 0.9858 1.4611 0.12314 0.57356 0.77566 2.2848 0.10891 0.28559 0.39092 0.47987 0.51288 0.76017 0.30731 0.70623 0.52267 2.5286 0.52696 3.3035" clip-path="url(#tree-2-clip)" fill="none" stroke="#646464" stroke-linecap="round" stroke-width="2"/>
<path d="m64.553 266.95c2.6012-0.48027 5.974-1.5076 7.6369 1.2294 0.18766 0.30888 1.7417 3.3229 1.8 3.5508 0.21416 0.83693-0.26671 0.24212 0.25855 0.76161" clip-path="url(#tree-2-clip)" fill="none" stroke="#646464" stroke-linecap="round" stroke-width="2"/>
<path d="m105.96 257.57c2.6391-1.9538 4.7459-4.3922 7.3404-6.3991 2.0533-1.5883 1.1825-1.5326 2.2805-1.5386" clip-path="url(#tree-2-clip)" fill="none" stroke="#646464" stroke-linecap="round" stroke-width="2"/>
<path d="m117.17 261.32c0.92598-1.192 1.7165-2.5029 2.7779-3.5761 1.4205-1.4363 3.382-2.5305 5.324-3.0815 0.81965-0.23257 1.7055-0.43087 2.5419-0.2684 0.0238 5e-3 1.7509 0.75332 0.76721 0.75876" clip-path="url(#tree-2-clip)" fill="none" stroke="#646464" stroke-linecap="round" stroke-width="2"/>
<path d="m78.153 196.68c-0.63396-0.41762-0.097-1.0363-0.26278-1.5246-0.03854-0.11353-0.2172-0.13939-0.25574-0.25292-0.18099-0.53311 0.17113-1.2472-0.0099-1.7803-0.67553-1.9898 0.38086-4.009 0.98494-5.8552 0.07909-0.24172-0.08331-0.52126-0.0042-0.76299 0.03728-0.11395 0.21564-0.14178 0.25292-0.25573 0.05273-0.16115-0.0778-0.35659-0.0028-0.50866 0.03749-0.076 0.19471 0.0589 0.25433-1e-3 0.25292-0.25573-0.0056-1.0173 0.24729-1.273 0.05961-0.0603 0.19472 0.0589 0.25433-1e-3 0.08431-0.0852 0.16768-0.34004 0.25292-0.25574 0.06028 0.0596 0.08619 0.25387 0.0013 0.25433-0.11989 8e-4 -0.17049-0.16861-0.25574-0.25292" clip-path="url(#tree-2-clip)" fill="none" stroke="#646464" stroke-linecap="round" stroke-width="2"/>
<path d="m81.257 160.04c-0.4593-0.98716-0.95191-1.6631-1.5401-2.5348-0.23459-0.3477-0.37258-0.75223-0.76862-1.0131-0.15831-0.10428-0.37528-0.11821-0.51007-0.25151-0.06028-0.0596 0.05887-0.19472-0.0013-0.25433-0.13478-0.13331-0.37528-0.11822-0.51007-0.25152-0.99808-0.98709 0.05812-0.13691-0.25855-0.76158-0.53509-1.0555 0.01905 0.27179-0.51007-0.25152-0.06028-0.0596 0.03692-0.17871-0.0013-0.25433-0.34698-0.68446-0.11395 9e-3 -0.51007-0.25151-0.17049-0.16862-0.34098-0.33723-0.51147-0.50584-5.29e-4 -0.0848 0.05887-0.19472-0.0013-0.25433-0.06028-0.0596-0.1783 0.0389-0.25433 1e-3 -1.0614-0.52337 0.27199 0.0161-0.25715-0.50725-0.06028-0.0596-0.17829 0.0389-0.25433 1e-3 -1.0614-0.52337 0.27198 0.0161-0.25715-0.50725-0.13479-0.1333-0.37528-0.11821-0.51007-0.25152-0.12787-0.12646-0.12928-0.38079-0.25715-0.50725-0.06028-0.0596-0.19405 0.061-0.25433 1e-3 -0.18812-0.18605-0.12191-0.37351 0.25433-1e-3" clip-path="url(#tree-2-clip)" fill="none" stroke="#646464" stroke-linecap="round" stroke-width="2"/>
<path d="m78.317 134.37c0.87116 0.60445 0.94789 1.7543 1.5401 2.5348 0.28986 0.38206 0.72129 0.63887 1.023 1.0117 0.44763 0.55323 0.61152 1.2268 1.0272 1.7747 0.40021 0.5275 0.8464 1.0186 1.2801 1.5189 0.52501 0.60569 1.3514 0.86787 1.7888 1.5161 0.14994 0.22224 0.06794 0.57307 0.25855 0.76158 0.34098 0.33723 0.25198-0.42529 0.25574 0.25293" clip-path="url(#tree-2-clip)" fill="none" stroke="#646464" stroke-linecap="round" stroke-width="2"/>
<path d="m68.981 239.71c0.76714-1.6536 0.89252-3.5484 1.2421-5.348 0.12364-0.63653-0.25292 0.25574-0.0042-0.76299 0.11869-0.48616 0.30428-0.87426 0.50162-1.2745 0.13414-0.27204-0.13977-0.74529-0.0056-1.0173 0.3108-0.63029 0.25482 0.0864 0.25152-0.51007" clip-path="url(#tree-2-clip)" fill="none" stroke="#646464" stroke-linecap="round" stroke-width="2"/>
<path d="m75.426 209.41c0.5745 3.5518 3.8448 5.572 5.3888 8.6176 0.39024 0.76979 0.12687 0.75337 0.51711 1.5232 0.13821 0.27264 0.41462 0.47073 0.51288 0.76017 0.08176 0.24084-0.07021 0.51979 0.0042 0.76299 0.37144 1.2137 1.2865 2.5401 1.5471 3.8065 0.13395 0.65099 0.10684 1.2617 0.26559 2.0332 0.17117 0.83189-0.31673 2.6454 0.01831 3.3063 0.29594 0.58379 0.26029 1.0754 0.26418 1.7789 0.0038 0.67821 0.08431-0.0853-0.25292 0.25573-0.16862 0.17049 0.17425 0.84683 0.0056 1.0173-0.05961 0.0603-0.2548-0.0834-0.25433 1e-3 5.29e-4 0.0848 0.16956-1e-3 0.25433-1e-3" clip-path="url(#tree-2-clip)" fill="none" stroke="#646464" stroke-linecap="round" stroke-width="2"/>
<path d="m83.899 86.01c-0.85256 1.1164-1.4687 2.4934-2.2693 3.5733-0.3886 0.52415-1.2268 0.94488-1.5175 1.5344-0.07499 0.15208 0.05554 0.34751 0.0028 0.50866-0.10624 0.3247-0.3694 0.74914-0.50303 1.0201-0.52337 1.0614 0.01606-0.27198-0.50725 0.25715-0.05961 0.06028 0.0389 0.17829 0.0013 0.25433-0.33411 0.67757-1.0136 0.6845-1.0089 1.5316" clip-path="url(#tree-2-clip)" fill="none" stroke="#646464" stroke-linecap="round" stroke-width="2"/>
<path d="m68.583 75.922c0.34004 0.16767 0.85246 0.84307 1.0201 0.50303 0.16768-0.34004-1.2586-0.79777-1.0201-0.50303 0.56686 0.70059 1.3676 1.1741 2.0445 1.769 2.6938 2.3679 3.9269 6.803 3.1083 10.156-0.0481 0.19705-1.142 2.1778-1.259 2.296-0.05961 0.06028-0.2548-0.08337-0.25433 0.0013 5.29e-4 0.11989 0.17049 0.16862 0.25574 0.25292" clip-path="url(#tree-2-clip)" fill="none" stroke="#646464" stroke-linecap="round" stroke-width="2"/>
<path d="m85.811 63.872c-0.29774 0.07619-1.0563 0.08466-1.2688 0.5157-0.56272 1.1412-1.1382 5.6538-0.72498 6.8711 0.17861 0.5261 0.60915 1.0437 0.77144 1.5218 0.05451 0.16056-0.07385 0.35743 0.0028 0.50866 0.03833 0.07562 0.19405-0.06102 0.25433-0.0013 0.12056 0.11923-0.11774 0.38943 0.0028 0.50866 0.08525 0.08431 0.59484 0.25105 0.7644 0.25011 0.85793-0.0047 0.89317-0.78259 1.2632-1.533 0.16768-0.34004-0.17471-0.93161-7e-3 -1.2717 0.37008-0.75052 0.25652 0.39338 0.25011-0.7644-0.0071-1.2924 0.13259-2.6116-0.27545-3.8135-0.05451-0.16056 0.07385-0.35743-0.0028-0.50866-0.38202-0.75357-0.54768-1.3319-1.03-2.2833z" fill="none" stroke="#646464" stroke-linecap="round" stroke-width="2"/>
<path d="m81.562 123.41c0.1719 0.42294 0.3438 0.84589 0.5157 1.2688 5.29e-4 0.0848-0.02585 0.17405 0.0013 0.25433 0.09826 0.28945 0.41462 0.47073 0.51288 0.76018 0.05451 0.16055-0.03922 0.34439 0.0028 0.50865 0.1591 0.62178 0.51079 1.0076 0.77144 1.5218 0.13488 0.26608 0.06697 1.078 0.26137 1.2702 0.06028 0.0596 0.19405-0.061 0.25433-1e-3 0.12787 0.12646-0.12364 0.63653 0.0042 0.76299 0.06028 0.0596 0.19405-0.061 0.25433-1e-3 0.41765 0.41305-0.42896 3.3698 0.27686 4.0679" fill="none" stroke="#646464" stroke-linecap="round" stroke-width="2"/>
<path d="m82.71 101.02c-0.16768 0.34005-0.84307 0.85246-0.50303 1.0201 0.34004 0.16768 0.6707-1.3602 0.50303-1.0201-0.86959 1.7635-0.79838 1.9228-1.2533 3.3133-0.47111 1.4398-0.33328 3.1765 0.02535 4.5779 0.09966 0.38947-0.12195 0.89172 7e-3 1.2716 0.21094 0.62134 0.515 1.143 0.51851 1.7775 7.94e-4 0.12018 0.25967 0.96361 0.25714 0.50725-5.29e-4 -0.0848-0.16955 1e-3 -0.25433 1e-3" fill="none" stroke="#646464" stroke-linecap="round" stroke-width="2"/>
<path d="m74.181 122.43c-0.08665-0.33863 0.07868-1.1026-0.25996-1.0159-0.33864 0.0867 0.45546 1.3057 0.25996 1.0159-0.36111-0.53522-0.48091-1.2002-0.77284-1.7761-0.5297-1.0449-1.2669-1.996-1.7972-3.0421-0.17719-0.34952-0.59836-0.33884-0.7658-0.50443-0.06028-0.0596 0.05887-0.19472-0.0013-0.25433-0.06028-0.0596-0.19405 0.061-0.25433 1e-3 -0.12787-0.12646-0.12928-0.38079-0.25714-0.50725-0.12787-0.12646-0.3822-0.12505-0.51007-0.25152-0.06028-0.0596 0.05887-0.19471-0.0013-0.25433-0.12056-0.11922-0.3881 0.12205-0.50866 3e-3 -0.08724-0.0863-0.51523-1.185-0.51148-0.50584 7.94e-4 0.11989 0.17049 0.16861 0.25574 0.25292" fill="none" stroke="#646464" stroke-linecap="round" stroke-width="2"/>
<path d="m75.258 179.15c-0.0451-0.85624-0.01738-1.7573 0.24025-2.5447 0.07457-0.2279 0.43128-0.28357 0.50585-0.51147 0.15124-0.46224 0.12956-1.0509 0.24588-1.5274 0.08992-0.36832 0.38513-0.65979 0.50303-1.0201 0.01265-0.0387 0.44172-1.9245 0.4974-2.0375 0.05302-0.10753 0.21564-0.14179 0.25292-0.25573 0.05273-0.16115-0.05554-0.34752-0.0028-0.50867 0.08635-0.26392 0.37968-0.51279 0.50444-0.7658 0.47959-0.9726 1.0172-2.0628 1.5091-3.0604 0.21146-0.42884 0.03763-1.1051 0.24588-1.5274 0.26039-0.52807 0.49722-1.0084 0.75454-1.5302 0.07593-0.15398-0.12114-0.64477-0.0042-0.76299 0.05962-0.0603 0.19472 0.0589 0.25433-1e-3 0.16043-0.16222-0.11034-0.80499-0.0056-1.0173 0.05302-0.10754 0.1999-0.14821 0.25292-0.25574 0.27806-0.5639-0.25227 0.37421-0.25574-0.25292" fill="none" stroke="#646464" stroke-linecap="round" stroke-width="2"/>
<path d="m87.64 164.58c0.24588-1.3687 0.59581-3.3526-0.02535-4.5779-0.17143-0.33816 0.16439-0.93348-7e-3 -1.2716-0.27884-0.55004-0.48612-1.2105-0.77285-1.7761-0.07667-0.15123 0.11774-0.38943-0.0028-0.50866-0.06028-0.0596-0.19405 0.061-0.25433 1e-3 -0.16766-0.16581-0.13183-0.88919-0.25996-1.0159-0.34098-0.33723-0.25198 0.42529-0.25574-0.25292" fill="none" stroke="#646464" stroke-linecap="round" stroke-width="2"/>
</g>
</g>
</svg>
