<?xml version="1.0" encoding="UTF-8"?>
<svg width="101.89mm" height="227.31mm" version="1.1" viewBox="0 0 101.89 227.31" xmlns="http://www.w3.org/2000/svg">
<g transform="translate(-36.672 -45.508)" fill="#fff" fill-opacity=".10204">
<path d="m118.45 106.57c12.018-9.6413 20.112-17.518 20.112-17.518s-1.3195 0.41449-2.1752-1.546c-4.3541 3.9762-16.414 16.709-19.899 14.226-0.20926-7.9768-1.6506-18.164-1.6506-18.164l-3.13 1.14s3.568 10.872-0.42004 18.447c-4.3541 8.2704-19.211 12.444-20.182 8.7624-2.6122-11.334-1.9119-23.409 0.8504-31.151 3.6646-5.2268 12.108-10.33 19.203-18.003 6.5608-7.0948 9.6042-17.165 9.6042-17.165l-3.2468-0.09257s-3.4305 7.1807-7.8095 12.801c-4.3682 5.6062-13.636 11.63-18.143 11.888-0.1649-6.8296 0.93006-24.36 0.93006-24.36l-14.566 4e-6s-1.4095 45.13-5.9397 47.098c-3.0459 1.3232-10.118-16.564-13.548-19.64-1.1129-5.168-0.77881-21.273-0.77881-21.273l-3.3603 1.0832s2.8619 12.69-1.8918 17.473c-6.3976-5.3494-10.975-23.416-10.975-23.416l-3.7097 0.35968s6.0446 20.245 11.935 25.926c9.8354 12.858 17.741 26.045 20.225 42.092 2.3597 15.247-4.7491 91.419-12.066 130.23-2.19 13.334-21.142 20.535-21.142 20.535l2.0771 2.7282s11.329-8.4862 20.04-9.8585c3.1427 1.8313-0.11575 12.989-0.11575 12.989l4.4136 0.31418s4.2682-14.543 10.308-13.861c7.7623-1.5332 12.563 14.2 12.563 14.2l5.2735-0.033c-5.0451-7.6803-6.8908-14.524-4.7459-15.638 3.1181-1.6194 14.327 4.9276 21.821 10.855l3.1299-3.808c-8.8602-5.142-21.882-11.222-22.728-17.839-1.9523-9.754-1.5393-102.37 2.3997-113.41 4.1243-11.552 16.168-17.469 27.34-26.382z" fill="#fff" fill-opacity="1" stroke-linecap="round" stroke-width="2"/>
</g>
</svg>
