<?xml version="1.0" encoding="UTF-8"?>
<svg width="96.439mm" height="222.82mm" version="1.1" viewBox="0 0 96.439 222.82" xmlns="http://www.w3.org/2000/svg">
<g transform="translate(-26.314 -45.733)" fill="#fff" fill-opacity=".10204">
<path d="m57.666 258.83c5.121 0.25134 3.7222 9.0329 3.7222 9.0329l3.2916 0.27251s3.3319-8.1613 9.5789-10.142c1.5483-0.36316 6.9694 3.6388 12.878 10.559l4.0843-0.92715s-5.8561-8.3208-4.1784-9.0142c2.6302-1.2057 11.898 5.3105 17.288 6.4075 7.1884 1.3626 13.939 0.47005 13.939 0.47005l-0.33745-3.1931s-18.671 4.3881-27.652-18.072c-4.514-17.365-5.1653-94.204 1.9037-134.05 6.1145-13.104 15.289-25.229 22.133-35.938 5.2085-8.1499 8.4355-28.28 8.4355-28.28l-3.0423 0.286s-3.8879 23.815-8.2331 21.775c-2.6239-5.8188-4.3655-21.8-4.3655-21.8l-3.7334-0.17696s4.2066 19.396 3.8448 26.667c-3.883 11.67-15.868 20.616-18.087 17.892-2.5798-3.1662-1.1464-21.277 0.6902-44.34l-20.07-0.52376s-2.6649 50.781-3.6433 61.542c-11.202-5.8318-21.98-32.509-23.081-36.741-1.5881-5.1364-2.4731-23.884-2.4731-23.884l-2.952 0.13849s1.8168 15.372-0.17607 15.527c-2.5313-0.072145-7.4077-11.964-7.4077-11.964l-3.7094 0.15797s6.1268 13.245 12.452 24.094c6.0763 10.706 8.0564 21.808 6.7643 22.575-4.7662 0.87788-13.03-5.0635-13.03-5.0635l-1.6925 4.0541s13.434 5.5053 17.875 8.2574c3.0981 1.9202 11.742 19.569 13.544 24.34 5.1913 37.56 0.33458 81.456-9.9384 116.8-3.446 7.3612-22.276 18.557-22.276 18.557l1.6326 2.128s15.935-6.2303 26.022-7.4225z" fill="#fff" fill-opacity="1" stroke-linecap="round" stroke-width="2"/>
</g>
</svg>
